<svg width="60" height="41" viewBox="0 0 60 41" fill="none" xmlns="http://www.w3.org/2000/svg">
<path d="M0 0V41H60V0H0ZM15 35.1429C15 32.8127 14.0518 30.5781 12.364 28.9304C10.6761 27.2828 8.38695 26.3571 6 26.3571V14.6429C8.38695 14.6429 10.6761 13.7172 12.364 12.0696C14.0518 10.4219 15 8.18726 15 5.85714H45C45 8.18726 45.9482 10.4219 47.636 12.0696C49.3239 13.7172 51.6131 14.6429 54 14.6429V26.3571C51.6131 26.3571 49.3239 27.2828 47.636 28.9304C45.9482 30.5781 45 32.8127 45 35.1429H15ZM30 11.7143C33.3 11.7143 36 15.5214 36 20.5C36 25.4786 33.3 29.2857 30 29.2857C26.7 29.2857 24 25.4786 24 20.5C24 15.5214 26.7 11.7143 30 11.7143Z" fill="#074C3D"/>
</svg>
