<svg width="46" height="46" viewBox="0 0 46 46" fill="none" xmlns="http://www.w3.org/2000/svg">
<path fill-rule="evenodd" clip-rule="evenodd" d="M0 44.191C0 43.7222 0.186233 43.2726 0.517729 42.9411C0.849224 42.6096 1.29883 42.4233 1.76763 42.4233H44.1909C44.6597 42.4233 45.1093 42.6096 45.4408 42.9411C45.7723 43.2726 45.9585 43.7222 45.9585 44.191C45.9585 44.6598 45.7723 45.1094 45.4408 45.4409C45.1093 45.7724 44.6597 45.9586 44.1909 45.9586H1.76763C1.29883 45.9586 0.849224 45.7724 0.517729 45.4409C0.186233 45.1094 0 44.6598 0 44.191Z" fill="#074C3D"/>
<path d="M12.3714 21.2114H5.30084C4.3246 21.2114 3.5332 22.0028 3.5332 22.9791V44.1907C3.5332 45.1669 4.3246 45.9583 5.30084 45.9583H12.3714C13.3476 45.9583 14.139 45.1669 14.139 44.1907V22.9791C14.139 22.0028 13.3476 21.2114 12.3714 21.2114Z" fill="#074C3D"/>
<path d="M26.514 0H19.4434C18.4672 0 17.6758 0.791397 17.6758 1.76763V44.1909C17.6758 45.1671 18.4672 45.9585 19.4434 45.9585H26.514C27.4902 45.9585 28.2816 45.1671 28.2816 44.1909V1.76763C28.2816 0.791397 27.4902 0 26.514 0Z" fill="#074C3D"/>
<path d="M40.6546 10.606H33.584C32.6078 10.606 31.8164 11.3974 31.8164 12.3736V44.191C31.8164 45.1672 32.6078 45.9586 33.584 45.9586H40.6546C41.6308 45.9586 42.4222 45.1672 42.4222 44.191V12.3736C42.4222 11.3974 41.6308 10.606 40.6546 10.606Z" fill="#074C3D"/>
</svg>
