<svg width="50" height="49" viewBox="0 0 50 49" fill="none" xmlns="http://www.w3.org/2000/svg">
<path d="M46.1492 18.2151V2.57895C46.1492 1.89497 45.8791 1.239 45.3982 0.755356C44.9174 0.27171 44.2653 0 43.5853 0H41.0215C35.9476 5.10374 26.4153 7.96121 20.5107 9.31774V37.1033C26.4153 38.4598 35.9476 41.3173 41.0215 46.4211H43.5853C44.2653 46.4211 44.9174 46.1493 45.3982 45.6657C45.8791 45.1821 46.1492 44.5261 46.1492 43.8421V28.2059C47.251 27.921 48.2274 27.2755 48.9245 26.3712C49.6216 25.4668 50 24.3549 50 23.2105C50 22.0661 49.6216 20.9543 48.9245 20.0499C48.2274 19.1455 47.251 18.5001 46.1492 18.2151ZM5.12769 10.3158C3.76774 10.3158 2.46349 10.8592 1.50186 11.8265C0.540237 12.7938 0 14.1057 0 15.4737V30.9474C0 32.3153 0.540237 33.6273 1.50186 34.5945C2.46349 35.5618 3.76774 36.1053 5.12769 36.1053H7.69153L10.2554 49H15.3831V10.3158H5.12769Z" fill="#074C3D"/>
</svg>
