<svg width="42" height="42" viewBox="0 0 42 42" fill="none" xmlns="http://www.w3.org/2000/svg">
<path d="M37.0675 0L0 37.0678L4.93246 42L42 4.93464L37.0675 0ZM8.65156 3.70654C8.00253 3.70589 7.35972 3.83307 6.75984 4.08084C6.15996 4.3286 5.61475 4.69208 5.15536 5.15053C4.69596 5.60899 4.33136 6.15343 4.08239 6.75278C3.83341 7.35213 3.70493 7.99464 3.70428 8.64364C3.70363 9.29264 3.83083 9.93541 4.07861 10.5353C4.32638 11.1351 4.68989 11.6803 5.14837 12.1396C5.60685 12.599 6.15132 12.9636 6.75071 13.2126C7.35009 13.4615 7.99264 13.59 8.64168 13.5906C9.95247 13.5919 11.2101 13.0725 12.1379 12.1466C13.0657 11.2207 13.5877 9.96424 13.589 8.65353C13.5903 7.34281 13.0708 6.08526 12.1449 5.15752C11.2189 4.22978 9.96235 3.70785 8.65156 3.70654ZM33.3633 28.4168C32.0525 28.4155 30.7948 28.9349 29.8671 29.8608C28.9393 30.7867 28.4173 32.0432 28.416 33.3539C28.4147 34.6646 28.9341 35.9221 29.8601 36.8499C30.786 37.7776 32.0426 38.2996 33.3534 38.3009C34.0024 38.3015 34.6452 38.1743 35.2451 37.9266C35.845 37.6788 36.3902 37.3153 36.8496 36.8569C37.309 36.3984 37.6736 35.854 37.9226 35.2546C38.1715 34.6553 38.3 34.0128 38.3007 33.3638C38.3013 32.7148 38.1741 32.072 37.9263 31.4722C37.6786 30.8723 37.3151 30.3271 36.8566 29.8678C36.3981 29.4084 35.8536 29.0438 35.2542 28.7949C34.6549 28.5459 34.0123 28.4174 33.3633 28.4168Z" fill="#074C3D"/>
</svg>
