<svg width="41" height="47" viewBox="0 0 41 47" fill="none" xmlns="http://www.w3.org/2000/svg">
<path d="M41 7.34375V11.75C41 15.8074 31.8208 19.0938 20.5 19.0938C9.17924 19.0938 0 15.8074 0 11.75V7.34375C0 3.28633 9.17924 0 20.5 0C31.8208 0 41 3.28633 41 7.34375ZM35.9848 19.7088C37.8884 19.0295 39.6364 18.1574 41 17.0834V26.4375C41 30.4949 31.8208 33.7812 20.5 33.7812C9.17924 33.7812 0 30.4949 0 26.4375V17.0834C1.36362 18.1666 3.11161 19.0295 5.01518 19.7088C9.12433 21.1775 14.5971 22.0312 20.5 22.0312C26.4029 22.0312 31.8757 21.1775 35.9848 19.7088ZM0 31.7709C1.36362 32.8541 3.11161 33.717 5.01518 34.3963C9.12433 35.865 14.5971 36.7188 20.5 36.7188C26.4029 36.7188 31.8757 35.865 35.9848 34.3963C37.8884 33.717 39.6364 32.8449 41 31.7709V39.6562C41 43.7137 31.8208 47 20.5 47C9.17924 47 0 43.7137 0 39.6562V31.7709Z" fill="#074C3D"/>
</svg>
