<svg width="47" height="47" viewBox="0 0 47 47" fill="none" xmlns="http://www.w3.org/2000/svg">
<path d="M23.5 33.9444C22.0639 33.9444 20.8349 33.4335 19.8131 32.4117C18.7913 31.3899 18.2795 30.1601 18.2778 28.7222C18.276 27.2844 18.7878 26.0554 19.8131 25.0353C20.8384 24.0153 22.0674 23.5035 23.5 23.5C24.9326 23.4965 26.1625 24.0083 27.1895 25.0353C28.2165 26.0624 28.7274 27.2913 28.7222 28.7222C28.717 30.1531 28.2061 31.3829 27.1895 32.4117C26.1729 33.4405 24.9431 33.9514 23.5 33.9444ZM11.4236 10.4444H35.5764L40.7986 0H6.20139L11.4236 10.4444ZM14.1 47H32.9C36.8167 47 40.1458 45.6405 42.8875 42.9214C45.6292 40.2024 47 36.8619 47 32.9C47 31.2463 46.7171 29.6361 46.1514 28.0694C45.5856 26.5028 44.7806 25.0884 43.7361 23.8264L36.9472 15.6667H10.0528L3.26389 23.8264C2.21944 25.0884 1.41435 26.5028 0.848611 28.0694C0.282871 29.6361 0 31.2463 0 32.9C0 36.8602 1.36039 40.2007 4.08117 42.9214C6.80195 45.6422 10.1416 47.0017 14.1 47Z" fill="#074C3D"/>
</svg>
