<svg width="45" height="45" viewBox="0 0 45 45" fill="none" xmlns="http://www.w3.org/2000/svg">
<path d="M26.7009 0C31.4215 0 35.9488 1.87526 39.2867 5.21325C42.6247 8.55124 44.5 13.0785 44.5 17.7991C44.5 22.5198 42.6247 27.0471 39.2867 30.385C35.9488 33.723 31.4215 35.5983 26.7009 35.5983C21.9802 35.5983 17.4529 33.723 14.115 30.385C10.777 27.0471 8.9017 22.5198 8.9017 17.7991C8.9017 13.0785 10.777 8.55124 14.115 5.21325C17.4529 1.87526 21.9802 0 26.7009 0Z" fill="#00A859"/>
<path fill-rule="evenodd" clip-rule="evenodd" d="M0.653254 43.8463C1.07048 44.2634 1.63629 44.4977 2.22626 44.4977C2.81622 44.4977 3.38203 44.2634 3.79926 43.8463L11.5864 36.0591C11.9917 35.6395 12.2159 35.0775 12.2109 34.4941C12.2058 33.9108 11.9718 33.3527 11.5593 32.9402C11.1468 32.5277 10.5887 32.2937 10.0054 32.2887C9.42201 32.2836 8.86 32.5078 8.44038 32.9131L0.653254 40.7003C0.236151 41.1175 0.00183678 41.6833 0.00183678 42.2733C0.00183678 42.8632 0.236151 43.429 0.653254 43.8463Z" fill="#00A859"/>
</svg>
