<svg width="48" height="52" viewBox="0 0 48 52" fill="none" xmlns="http://www.w3.org/2000/svg">
<path d="M25.2543 50.6743L25.2257 50.6791L25.0565 50.7625L25.0088 50.7721L24.9754 50.7625L24.8062 50.6767C24.7808 50.6704 24.7617 50.6751 24.749 50.691L24.7394 50.7149L24.6989 51.7351L24.7108 51.7828L24.7347 51.8138L24.9826 51.9902L25.0183 51.9997L25.0469 51.9902L25.2949 51.8138L25.3235 51.7756L25.333 51.7351L25.2925 50.7172C25.2861 50.6918 25.2734 50.6775 25.2543 50.6743ZM25.8837 50.405L25.8503 50.4097L25.4117 50.6314L25.3878 50.6553L25.3807 50.6815L25.4236 51.7065L25.4355 51.7351L25.4546 51.7542L25.9337 51.9735C25.9639 51.9814 25.987 51.9751 26.0028 51.9544L26.0124 51.9211L25.9313 50.4574C25.9234 50.4272 25.9075 50.4097 25.8837 50.405ZM24.1792 50.4097C24.1687 50.4034 24.1562 50.4013 24.1442 50.404C24.1322 50.4066 24.1217 50.4138 24.1149 50.424L24.1006 50.4574L24.0195 51.9211C24.0211 51.9497 24.0346 51.9687 24.0601 51.9783L24.0958 51.9735L24.575 51.7518L24.5988 51.7327L24.6059 51.7065L24.6489 50.6815L24.6417 50.6529L24.6179 50.629L24.1792 50.4097Z" fill="#00A859"/>
<path d="M21.4541 0C18.293 0 15.2614 1.25574 13.0261 3.49098C10.7909 5.72622 9.53516 8.75785 9.53516 11.919C9.53516 15.0801 10.7909 18.1117 13.0261 20.3469C15.2614 22.5822 18.293 23.8379 21.4541 23.8379C24.6152 23.8379 27.6468 22.5822 29.8821 20.3469C32.1173 18.1117 33.3731 15.0801 33.3731 11.919C33.3731 8.75785 32.1173 5.72622 29.8821 3.49098C27.6468 1.25574 24.6152 0 21.4541 0ZM21.4541 26.2217C22.8637 26.2249 24.2336 26.3202 25.5638 26.5077C26.0111 26.5703 26.4314 26.7586 26.7759 27.0507C27.1203 27.3429 27.3747 27.7269 27.5093 28.158C27.6439 28.5892 27.6533 29.0497 27.5363 29.4859C27.4194 29.9222 27.1809 30.3162 26.8486 30.6222C24.8867 32.4194 23.3845 34.661 22.4678 37.1587C21.5511 39.6565 21.2469 42.3377 21.5805 44.9774C21.6226 45.3165 21.5912 45.6608 21.4886 45.9868C21.386 46.3128 21.2145 46.6129 20.9857 46.8668C20.7569 47.1207 20.4761 47.3224 20.1625 47.4583C19.8489 47.5942 19.5098 47.6611 19.1681 47.6544C14.3766 47.559 9.89511 47.1395 6.54827 46.1144C4.87485 45.6019 3.29678 44.882 2.10012 43.8212C0.834327 42.7008 0 41.1919 0 39.3325C0 37.4565 0.853397 35.702 2.01192 34.2336C3.18951 32.7437 4.81764 31.3731 6.72706 30.205C10.5483 27.8784 15.7449 26.2217 21.4541 26.2217ZM45.7974 28.6865C46.9146 29.8041 47.5422 31.3196 47.5422 32.8999C47.5422 34.4801 46.9146 35.9957 45.7974 37.1132L37.6496 45.261C37.1028 45.8076 36.3935 46.1623 35.6281 46.2718L30.124 47.0584C29.7571 47.1111 29.383 47.0776 29.0314 46.9605C28.6798 46.8434 28.3603 46.6459 28.0984 46.3837C27.8365 46.1215 27.6392 45.8019 27.5224 45.4502C27.4056 45.0985 27.3724 44.7244 27.4255 44.3576L28.2122 38.8558C28.3212 38.0896 28.6758 37.3794 29.2229 36.8319L37.3707 28.6841C38.4882 27.5669 40.0038 26.9393 41.584 26.9393C43.1643 26.9393 44.6798 27.5669 45.7974 28.6841V28.6865Z" fill="#00A859"/>
</svg>
