<svg width="53" height="52" viewBox="0 0 53 52" fill="none" xmlns="http://www.w3.org/2000/svg">
<path d="M0 44.9405C0 46.0019 0.377621 46.9031 1.13287 47.6441L4.40901 50.8885C5.20508 51.6295 6.13383 52 7.19526 52C8.2771 52 9.19565 51.6295 9.95089 50.8885L21.0653 39.9538C21.8409 39.2328 22.2288 38.3316 22.2288 37.2501C22.2288 36.1887 21.7899 35.2274 20.9122 34.3663L28.7504 26.6759L32.6083 30.461C32.8941 30.7414 33.2411 30.8816 33.6493 30.8816C34.0576 30.8816 34.4046 30.7414 34.6904 30.461C34.6495 30.5011 34.522 30.6212 34.3076 30.8215C34.0933 31.0218 33.9657 31.1519 33.9249 31.212C33.8841 31.2721 33.782 31.3873 33.6187 31.5575C33.4554 31.7277 33.3534 31.8629 33.3125 31.963C33.2717 32.0632 33.2105 32.1983 33.1288 32.3686C33.0472 32.5388 32.991 32.704 32.9604 32.8642C32.9298 33.0245 32.9145 33.2047 32.9145 33.405C32.9145 34.166 33.2003 34.8469 33.7718 35.4477C33.833 35.5078 34.0014 35.688 34.277 35.9884C34.5526 36.2888 34.7465 36.4941 34.8588 36.6043C34.971 36.7144 35.1598 36.8796 35.4252 37.0999C35.6905 37.3202 35.9151 37.4754 36.0988 37.5656C36.2825 37.6557 36.507 37.7458 36.7724 37.8359C37.0377 37.9261 37.3031 37.9711 37.5685 37.9711C38.3849 37.9711 39.079 37.6907 39.6505 37.13L52.1427 24.8735C52.7142 24.3127 53 23.6318 53 22.8307C53 22.5704 52.9541 22.31 52.8622 22.0497C52.7704 21.7893 52.6785 21.569 52.5867 21.3888C52.4948 21.2085 52.3366 20.9883 52.1121 20.7279C51.8875 20.4676 51.7191 20.2823 51.6069 20.1722C51.4946 20.062 51.2854 19.8717 50.9792 19.6014C50.673 19.331 50.4893 19.1658 50.4281 19.1057C49.8157 18.545 49.1217 18.2646 48.346 18.2646C48.1419 18.2646 47.9582 18.2796 47.7949 18.3096C47.6316 18.3397 47.4632 18.3948 47.2897 18.4749C47.1162 18.555 46.9784 18.6151 46.8764 18.6551C46.7743 18.6952 46.6365 18.7953 46.463 18.9555C46.2895 19.1157 46.1722 19.2159 46.1109 19.2559C46.0497 19.296 45.917 19.4211 45.7129 19.6314C45.5088 19.8417 45.3863 19.9669 45.3455 20.0069C45.6312 19.7266 45.7741 19.3861 45.7741 18.9856C45.7741 18.585 45.6312 18.2446 45.3455 17.9642L34.6904 7.51011C34.4046 7.22973 34.0576 7.08954 33.6493 7.08954C33.2411 7.08954 32.8941 7.22973 32.6083 7.51011C32.6491 7.47006 32.7767 7.34989 32.991 7.14962C33.2054 6.94936 33.3329 6.81918 33.3738 6.7591C33.4146 6.69902 33.5167 6.58386 33.68 6.41363C33.8433 6.2434 33.9453 6.10822 33.9861 6.00809C34.027 5.90795 34.0882 5.77277 34.1698 5.60254C34.2515 5.43231 34.3076 5.26709 34.3382 5.10687C34.3689 4.94666 34.3842 4.76642 34.3842 4.56615C34.3842 3.80512 34.0984 3.12421 33.5269 2.5234C33.4656 2.46332 33.2972 2.28307 33.0217 1.98267C32.7461 1.68226 32.5522 1.47699 32.4399 1.36684C32.3277 1.25669 32.1388 1.09147 31.8735 0.871173C31.6081 0.650876 31.3836 0.495667 31.1999 0.405546C31.0162 0.315425 30.7916 0.225303 30.5263 0.135182C30.2609 0.0450607 29.9956 0 29.7302 0C28.9137 0 28.2197 0.280377 27.6482 0.841132L15.156 13.0976C14.5844 13.6584 14.2987 14.3393 14.2987 15.1404C14.2987 15.4007 14.3446 15.6611 14.4365 15.9214C14.5283 16.1818 14.6202 16.4021 14.712 16.5823C14.8039 16.7626 14.9621 16.9829 15.1866 17.2432C15.4111 17.5036 15.5795 17.6888 15.6918 17.799C15.8041 17.9091 16.0133 18.0994 16.3195 18.3697C16.6256 18.6401 16.8094 18.8053 16.8706 18.8654C17.483 19.4262 18.177 19.7065 18.9526 19.7065C19.1567 19.7065 19.3405 19.6915 19.5038 19.6615C19.667 19.6314 19.8354 19.5764 20.009 19.4962C20.1825 19.4161 20.3202 19.3561 20.4223 19.316C20.5244 19.2759 20.6621 19.1758 20.8356 19.0156C21.0091 18.8554 21.1265 18.7552 21.1878 18.7152C21.249 18.6751 21.3817 18.55 21.5858 18.3397C21.7899 18.1294 21.9124 18.0042 21.9532 17.9642C21.6674 18.2446 21.5246 18.585 21.5246 18.9856C21.5246 19.3861 21.6674 19.7266 21.9532 20.0069L25.8111 23.792L17.9728 31.4824C17.0951 30.6212 16.1153 30.1906 15.0335 30.1906C13.9721 30.1906 13.0433 30.5611 12.2473 31.3021L1.13287 42.2068C0.377621 42.9879 0 43.8991 0 44.9405Z" fill="#00A859"/>
</svg>
