<svg width="54" height="48" viewBox="0 0 54 48" fill="none" xmlns="http://www.w3.org/2000/svg">
<path d="M18.9 21.3333C21.036 21.3333 23.1241 20.7077 24.9002 19.5357C26.6762 18.3636 28.0605 16.6977 28.8779 14.7486C29.6953 12.7995 29.9092 10.6548 29.4925 8.58571C29.0758 6.51658 28.0472 4.61596 26.5368 3.1242C25.0263 1.63244 23.102 0.616537 21.007 0.204962C18.912 -0.206614 16.7405 0.00462166 14.767 0.811956C12.7936 1.61929 11.1068 2.98646 9.92013 4.74059C8.73341 6.49471 8.1 8.557 8.1 10.6667C8.1 13.4956 9.23785 16.2088 11.2632 18.2091C13.2886 20.2095 16.0357 21.3333 18.9 21.3333ZM40.5 26.6667C42.102 26.6667 43.6681 26.1975 45.0001 25.3184C46.3322 24.4394 47.3704 23.1899 47.9834 21.7281C48.5965 20.2663 48.7569 18.6578 48.4444 17.1059C48.1318 15.5541 47.3604 14.1286 46.2276 13.0098C45.0948 11.891 43.6515 11.1291 42.0802 10.8204C40.509 10.5117 38.8803 10.6701 37.4003 11.2756C35.9202 11.8811 34.6551 12.9065 33.7651 14.2221C32.8751 15.5377 32.4 17.0844 32.4 18.6667C32.4 20.7884 33.2534 22.8232 34.7724 24.3235C36.2915 25.8238 38.3517 26.6667 40.5 26.6667ZM51.3 45.3333C52.0161 45.3333 52.7028 45.0524 53.2092 44.5523C53.7155 44.0522 54 43.3739 54 42.6667C53.9978 40.1744 53.2885 37.7326 51.9523 35.6183C50.6162 33.5041 48.7069 31.802 46.4409 30.7052C44.175 29.6085 41.6432 29.1609 39.1327 29.4133C36.6222 29.6658 34.2337 30.6081 32.238 32.1333C29.5934 29.5316 26.228 27.7616 22.5661 27.0465C18.9043 26.3313 15.1101 26.7032 11.6619 28.115C8.21376 29.5269 5.26612 31.9156 3.1907 34.9798C1.11529 38.0441 0.00504952 41.6467 0 45.3333C0 46.0406 0.284463 46.7189 0.790812 47.219C1.29716 47.719 1.98392 48 2.7 48H35.1C35.8161 48 36.5028 47.719 37.0092 47.219C37.5155 46.7189 37.8 46.0406 37.8 45.3333" fill="#00A859"/>
</svg>
