<svg width="46" height="52" viewBox="0 0 46 52" fill="none" xmlns="http://www.w3.org/2000/svg">
<path d="M40.8889 5.2H30.2067C29.1333 2.184 26.3222 0 23 0C19.6778 0 16.8667 2.184 15.7933 5.2H5.11111C3.75556 5.2 2.45553 5.74786 1.49701 6.72304C0.53849 7.69823 0 9.02087 0 10.4V46.8C0 48.1791 0.53849 49.5018 1.49701 50.477C2.45553 51.4521 3.75556 52 5.11111 52H40.8889C42.2444 52 43.5445 51.4521 44.503 50.477C45.4615 49.5018 46 48.1791 46 46.8V10.4C46 9.02087 45.4615 7.69823 44.503 6.72304C43.5445 5.74786 42.2444 5.2 40.8889 5.2ZM23 5.2C23.6778 5.2 24.3278 5.47393 24.8071 5.96152C25.2863 6.44912 25.5556 7.11044 25.5556 7.8C25.5556 8.48956 25.2863 9.15088 24.8071 9.63848C24.3278 10.1261 23.6778 10.4 23 10.4C22.3222 10.4 21.6722 10.1261 21.1929 9.63848C20.7137 9.15088 20.4444 8.48956 20.4444 7.8C20.4444 7.11044 20.7137 6.44912 21.1929 5.96152C21.6722 5.47393 22.3222 5.2 23 5.2Z" fill="#00A859"/>
</svg>
