<svg width="31" height="31" viewBox="0 0 31 31" fill="none" xmlns="http://www.w3.org/2000/svg">
<path d="M26.428 0H4.56974C2.05638 0 0 2.05638 0 4.56974V26.4303C0 28.9436 2.05638 31 4.56974 31H26.4303C28.9436 31 31 28.9436 31 26.4303V4.56974C30.9977 2.05638 28.9436 0 26.428 0ZM26.1344 16.5459H22.4557V29.8553H16.9515V16.5459H14.1982V11.9579H16.9515V9.20461C16.9515 5.46199 18.5052 3.23538 22.9264 3.23538H26.6016V7.82226H24.303C22.5848 7.82226 22.4706 8.46545 22.4706 9.66158L22.4557 11.9579H26.6199L26.1344 16.5459Z" fill="#00A859"/>
</svg>
