<svg width="609" height="449" viewBox="0 0 609 449" fill="none" xmlns="http://www.w3.org/2000/svg">
<rect x="388" y="53" width="221" height="396" fill="#00AC4C"/>
<rect y="53" width="221" height="396" fill="#00AC4B"/>
<rect x="188" width="233" height="396" fill="#004734"/>
<path d="M239.592 108.832H244.968V112H235.488V95.152H239.592V108.832ZM251.342 98.608V112H247.238V98.608H251.342ZM252.086 95.272L246.302 97.696V94.864L252.086 92.08V95.272ZM253.82 105.28C253.82 103.904 254.076 102.696 254.588 101.656C255.116 100.616 255.828 99.816 256.724 99.256C257.62 98.696 258.62 98.416 259.724 98.416C260.604 98.416 261.404 98.6 262.124 98.968C262.86 99.336 263.436 99.832 263.852 100.456V94.24H267.956V112H263.852V110.08C263.468 110.72 262.916 111.232 262.196 111.616C261.492 112 260.668 112.192 259.724 112.192C258.62 112.192 257.62 111.912 256.724 111.352C255.828 110.776 255.116 109.968 254.588 108.928C254.076 107.872 253.82 106.656 253.82 105.28ZM263.852 105.304C263.852 104.28 263.564 103.472 262.988 102.88C262.428 102.288 261.74 101.992 260.924 101.992C260.108 101.992 259.412 102.288 258.836 102.88C258.276 103.456 257.996 104.256 257.996 105.28C257.996 106.304 258.276 107.12 258.836 107.728C259.412 108.32 260.108 108.616 260.924 108.616C261.74 108.616 262.428 108.32 262.988 107.728C263.564 107.136 263.852 106.328 263.852 105.304ZM283.549 105.088C283.549 105.472 283.526 105.872 283.478 106.288H274.19C274.254 107.12 274.518 107.76 274.982 108.208C275.462 108.64 276.046 108.856 276.734 108.856C277.758 108.856 278.47 108.424 278.87 107.56H283.238C283.014 108.44 282.606 109.232 282.014 109.936C281.438 110.64 280.71 111.192 279.83 111.592C278.95 111.992 277.966 112.192 276.878 112.192C275.566 112.192 274.398 111.912 273.374 111.352C272.35 110.792 271.55 109.992 270.974 108.952C270.398 107.912 270.11 106.696 270.11 105.304C270.11 103.912 270.39 102.696 270.95 101.656C271.526 100.616 272.326 99.816 273.35 99.256C274.374 98.696 275.55 98.416 276.878 98.416C278.174 98.416 279.326 98.688 280.334 99.232C281.342 99.776 282.126 100.552 282.686 101.56C283.262 102.568 283.549 103.744 283.549 105.088ZM279.35 104.008C279.35 103.304 279.11 102.744 278.63 102.328C278.15 101.912 277.55 101.704 276.83 101.704C276.142 101.704 275.558 101.904 275.078 102.304C274.614 102.704 274.326 103.272 274.214 104.008H279.35ZM289.819 100.84C290.299 100.104 290.899 99.528 291.619 99.112C292.339 98.68 293.139 98.464 294.019 98.464V102.808H292.891C291.867 102.808 291.099 103.032 290.587 103.48C290.075 103.912 289.819 104.68 289.819 105.784V112H285.715V98.608H289.819V100.84ZM309.226 98.464C310.794 98.464 312.042 98.976 312.97 100C313.914 101.008 314.386 102.4 314.386 104.176V112H310.306V104.728C310.306 103.832 310.074 103.136 309.61 102.64C309.146 102.144 308.522 101.896 307.738 101.896C306.954 101.896 306.33 102.144 305.866 102.64C305.402 103.136 305.17 103.832 305.17 104.728V112H301.066V98.608H305.17V100.384C305.586 99.792 306.146 99.328 306.85 98.992C307.554 98.64 308.346 98.464 309.226 98.464ZM323.334 112.192C322.022 112.192 320.838 111.912 319.782 111.352C318.742 110.792 317.918 109.992 317.31 108.952C316.718 107.912 316.422 106.696 316.422 105.304C316.422 103.928 316.726 102.72 317.334 101.68C317.942 100.624 318.774 99.816 319.83 99.256C320.886 98.696 322.07 98.416 323.382 98.416C324.694 98.416 325.878 98.696 326.934 99.256C327.99 99.816 328.822 100.624 329.43 101.68C330.038 102.72 330.342 103.928 330.342 105.304C330.342 106.68 330.03 107.896 329.406 108.952C328.798 109.992 327.958 110.792 326.886 111.352C325.83 111.912 324.646 112.192 323.334 112.192ZM323.334 108.64C324.118 108.64 324.782 108.352 325.326 107.776C325.886 107.2 326.166 106.376 326.166 105.304C326.166 104.232 325.894 103.408 325.35 102.832C324.822 102.256 324.166 101.968 323.382 101.968C322.582 101.968 321.918 102.256 321.39 102.832C320.862 103.392 320.598 104.216 320.598 105.304C320.598 106.376 320.854 107.2 321.366 107.776C321.894 108.352 322.55 108.64 323.334 108.64ZM241.584 148.168C240.352 148.168 239.248 147.968 238.272 147.568C237.296 147.168 236.512 146.576 235.92 145.792C235.344 145.008 235.04 144.064 235.008 142.96H239.376C239.44 143.584 239.656 144.064 240.024 144.4C240.392 144.72 240.872 144.88 241.464 144.88C242.072 144.88 242.552 144.744 242.904 144.472C243.256 144.184 243.432 143.792 243.432 143.296C243.432 142.88 243.288 142.536 243 142.264C242.728 141.992 242.384 141.768 241.968 141.592C241.568 141.416 240.992 141.216 240.24 140.992C239.152 140.656 238.264 140.32 237.576 139.984C236.888 139.648 236.296 139.152 235.8 138.496C235.304 137.84 235.056 136.984 235.056 135.928C235.056 134.36 235.624 133.136 236.76 132.256C237.896 131.36 239.376 130.912 241.2 130.912C243.056 130.912 244.552 131.36 245.688 132.256C246.824 133.136 247.432 134.368 247.512 135.952H243.072C243.04 135.408 242.84 134.984 242.472 134.68C242.104 134.36 241.632 134.2 241.056 134.2C240.56 134.2 240.16 134.336 239.856 134.608C239.552 134.864 239.4 135.24 239.4 135.736C239.4 136.28 239.656 136.704 240.168 137.008C240.68 137.312 241.48 137.64 242.568 137.992C243.656 138.36 244.536 138.712 245.208 139.048C245.896 139.384 246.488 139.872 246.984 140.512C247.48 141.152 247.728 141.976 247.728 142.984C247.728 143.944 247.48 144.816 246.984 145.6C246.504 146.384 245.8 147.008 244.872 147.472C243.944 147.936 242.848 148.168 241.584 148.168ZM262.878 141.088C262.878 141.472 262.854 141.872 262.806 142.288H253.518C253.582 143.12 253.846 143.76 254.31 144.208C254.79 144.64 255.374 144.856 256.062 144.856C257.086 144.856 257.798 144.424 258.198 143.56H262.566C262.342 144.44 261.934 145.232 261.342 145.936C260.766 146.64 260.038 147.192 259.158 147.592C258.278 147.992 257.294 148.192 256.206 148.192C254.894 148.192 253.726 147.912 252.702 147.352C251.678 146.792 250.878 145.992 250.302 144.952C249.726 143.912 249.438 142.696 249.438 141.304C249.438 139.912 249.718 138.696 250.278 137.656C250.854 136.616 251.654 135.816 252.678 135.256C253.702 134.696 254.878 134.416 256.206 134.416C257.502 134.416 258.654 134.688 259.662 135.232C260.67 135.776 261.454 136.552 262.014 137.56C262.59 138.568 262.878 139.744 262.878 141.088ZM258.678 140.008C258.678 139.304 258.438 138.744 257.958 138.328C257.478 137.912 256.878 137.704 256.158 137.704C255.47 137.704 254.886 137.904 254.406 138.304C253.942 138.704 253.654 139.272 253.542 140.008H258.678ZM270.131 134.416C271.075 134.416 271.899 134.608 272.603 134.992C273.323 135.376 273.875 135.88 274.259 136.504V134.608H278.363V147.976C278.363 149.208 278.115 150.32 277.619 151.312C277.139 152.32 276.395 153.12 275.387 153.712C274.395 154.304 273.155 154.6 271.667 154.6C269.683 154.6 268.075 154.128 266.843 153.184C265.611 152.256 264.907 150.992 264.731 149.392H268.787C268.915 149.904 269.219 150.304 269.699 150.592C270.179 150.896 270.771 151.048 271.475 151.048C272.323 151.048 272.995 150.8 273.491 150.304C274.003 149.824 274.259 149.048 274.259 147.976V146.08C273.859 146.704 273.307 147.216 272.603 147.616C271.899 148 271.075 148.192 270.131 148.192C269.027 148.192 268.027 147.912 267.131 147.352C266.235 146.776 265.523 145.968 264.995 144.928C264.483 143.872 264.227 142.656 264.227 141.28C264.227 139.904 264.483 138.696 264.995 137.656C265.523 136.616 266.235 135.816 267.131 135.256C268.027 134.696 269.027 134.416 270.131 134.416ZM274.259 141.304C274.259 140.28 273.971 139.472 273.395 138.88C272.835 138.288 272.147 137.992 271.331 137.992C270.515 137.992 269.819 138.288 269.243 138.88C268.683 139.456 268.403 140.256 268.403 141.28C268.403 142.304 268.683 143.12 269.243 143.728C269.819 144.32 270.515 144.616 271.331 144.616C272.147 144.616 272.835 144.32 273.395 143.728C273.971 143.136 274.259 142.328 274.259 141.304ZM298.42 134.464C300.084 134.464 301.404 134.968 302.38 135.976C303.372 136.984 303.868 138.384 303.868 140.176V148H299.788V140.728C299.788 139.864 299.556 139.2 299.092 138.736C298.644 138.256 298.02 138.016 297.22 138.016C296.42 138.016 295.788 138.256 295.324 138.736C294.876 139.2 294.652 139.864 294.652 140.728V148H290.572V140.728C290.572 139.864 290.34 139.2 289.876 138.736C289.428 138.256 288.804 138.016 288.004 138.016C287.204 138.016 286.572 138.256 286.108 138.736C285.66 139.2 285.436 139.864 285.436 140.728V148H281.332V134.608H285.436V136.288C285.852 135.728 286.396 135.288 287.068 134.968C287.74 134.632 288.5 134.464 289.348 134.464C290.356 134.464 291.252 134.68 292.036 135.112C292.836 135.544 293.46 136.16 293.908 136.96C294.372 136.224 295.004 135.624 295.804 135.16C296.604 134.696 297.476 134.464 298.42 134.464ZM319.362 141.088C319.362 141.472 319.338 141.872 319.29 142.288H310.002C310.066 143.12 310.33 143.76 310.794 144.208C311.274 144.64 311.858 144.856 312.546 144.856C313.57 144.856 314.282 144.424 314.682 143.56H319.05C318.826 144.44 318.418 145.232 317.826 145.936C317.25 146.64 316.522 147.192 315.642 147.592C314.762 147.992 313.778 148.192 312.69 148.192C311.378 148.192 310.21 147.912 309.186 147.352C308.162 146.792 307.362 145.992 306.786 144.952C306.21 143.912 305.922 142.696 305.922 141.304C305.922 139.912 306.202 138.696 306.762 137.656C307.338 136.616 308.138 135.816 309.162 135.256C310.186 134.696 311.362 134.416 312.69 134.416C313.986 134.416 315.138 134.688 316.146 135.232C317.154 135.776 317.938 136.552 318.498 137.56C319.074 138.568 319.362 139.744 319.362 141.088ZM315.162 140.008C315.162 139.304 314.922 138.744 314.442 138.328C313.962 137.912 313.362 137.704 312.642 137.704C311.954 137.704 311.37 137.904 310.89 138.304C310.426 138.704 310.138 139.272 310.026 140.008H315.162ZM329.687 134.464C331.255 134.464 332.503 134.976 333.431 136C334.375 137.008 334.847 138.4 334.847 140.176V148H330.767V140.728C330.767 139.832 330.535 139.136 330.071 138.64C329.607 138.144 328.983 137.896 328.199 137.896C327.415 137.896 326.791 138.144 326.327 138.64C325.863 139.136 325.631 139.832 325.631 140.728V148H321.527V134.608H325.631V136.384C326.047 135.792 326.607 135.328 327.311 134.992C328.015 134.64 328.807 134.464 329.687 134.464ZM345.163 144.52V148H343.075C341.587 148 340.427 147.64 339.595 146.92C338.763 146.184 338.347 144.992 338.347 143.344V138.016H336.715V134.608H338.347V131.344H342.451V134.608H345.139V138.016H342.451V143.392C342.451 143.792 342.547 144.08 342.739 144.256C342.931 144.432 343.251 144.52 343.699 144.52H345.163ZM353.545 148.192C352.233 148.192 351.049 147.912 349.993 147.352C348.953 146.792 348.129 145.992 347.521 144.952C346.929 143.912 346.633 142.696 346.633 141.304C346.633 139.928 346.937 138.72 347.545 137.68C348.153 136.624 348.985 135.816 350.041 135.256C351.097 134.696 352.281 134.416 353.593 134.416C354.905 134.416 356.089 134.696 357.145 135.256C358.201 135.816 359.033 136.624 359.641 137.68C360.249 138.72 360.553 139.928 360.553 141.304C360.553 142.68 360.241 143.896 359.617 144.952C359.009 145.992 358.169 146.792 357.097 147.352C356.041 147.912 354.857 148.192 353.545 148.192ZM353.545 144.64C354.329 144.64 354.993 144.352 355.537 143.776C356.097 143.2 356.377 142.376 356.377 141.304C356.377 140.232 356.105 139.408 355.561 138.832C355.033 138.256 354.377 137.968 353.593 137.968C352.793 137.968 352.129 138.256 351.601 138.832C351.073 139.392 350.809 140.216 350.809 141.304C350.809 142.376 351.065 143.2 351.577 143.776C352.105 144.352 352.761 144.64 353.545 144.64Z" fill="#00AC4C"/>
<path d="M436.224 161.424C436.288 159.712 436.848 158.392 437.904 157.464C438.96 156.536 440.392 156.072 442.2 156.072C443.4 156.072 444.424 156.28 445.272 156.696C446.136 157.112 446.784 157.68 447.216 158.4C447.664 159.12 447.888 159.928 447.888 160.824C447.888 161.88 447.624 162.744 447.096 163.416C446.568 164.072 445.952 164.52 445.248 164.76V164.856C446.16 165.16 446.88 165.664 447.408 166.368C447.936 167.072 448.2 167.976 448.2 169.08C448.2 170.072 447.968 170.952 447.504 171.72C447.056 172.472 446.392 173.064 445.512 173.496C444.648 173.928 443.616 174.144 442.416 174.144C440.496 174.144 438.96 173.672 437.808 172.728C436.672 171.784 436.072 170.36 436.008 168.456H439.992C440.008 169.16 440.208 169.72 440.592 170.136C440.976 170.536 441.536 170.736 442.272 170.736C442.896 170.736 443.376 170.56 443.712 170.208C444.064 169.84 444.24 169.36 444.24 168.768C444.24 168 443.992 167.448 443.496 167.112C443.016 166.76 442.24 166.584 441.168 166.584H440.4V163.248H441.168C441.984 163.248 442.64 163.112 443.136 162.84C443.648 162.552 443.904 162.048 443.904 161.328C443.904 160.752 443.744 160.304 443.424 159.984C443.104 159.664 442.664 159.504 442.104 159.504C441.496 159.504 441.04 159.688 440.736 160.056C440.448 160.424 440.28 160.88 440.232 161.424H436.224ZM453.491 164.592C451.987 163.792 451.235 162.536 451.235 160.824C451.235 159.96 451.459 159.176 451.907 158.472C452.355 157.752 453.035 157.184 453.947 156.768C454.859 156.336 455.979 156.12 457.307 156.12C458.635 156.12 459.747 156.336 460.643 156.768C461.555 157.184 462.235 157.752 462.683 158.472C463.131 159.176 463.355 159.96 463.355 160.824C463.355 161.688 463.147 162.44 462.731 163.08C462.331 163.72 461.787 164.224 461.099 164.592C461.963 165.008 462.627 165.584 463.091 166.32C463.555 167.04 463.787 167.888 463.787 168.864C463.787 170 463.499 170.984 462.923 171.816C462.347 172.632 461.563 173.256 460.571 173.688C459.595 174.12 458.507 174.336 457.307 174.336C456.107 174.336 455.011 174.12 454.019 173.688C453.043 173.256 452.267 172.632 451.691 171.816C451.115 170.984 450.827 170 450.827 168.864C450.827 167.872 451.059 167.016 451.523 166.296C451.987 165.56 452.643 164.992 453.491 164.592ZM459.371 161.448C459.371 160.792 459.179 160.288 458.795 159.936C458.427 159.568 457.931 159.384 457.307 159.384C456.683 159.384 456.179 159.568 455.795 159.936C455.427 160.304 455.243 160.816 455.243 161.472C455.243 162.096 455.435 162.592 455.819 162.96C456.203 163.312 456.699 163.488 457.307 163.488C457.915 163.488 458.411 163.304 458.795 162.936C459.179 162.568 459.371 162.072 459.371 161.448ZM457.307 166.368C456.555 166.368 455.947 166.576 455.483 166.992C455.019 167.392 454.787 167.952 454.787 168.672C454.787 169.344 455.011 169.896 455.459 170.328C455.923 170.76 456.539 170.976 457.307 170.976C458.075 170.976 458.675 170.76 459.107 170.328C459.555 169.896 459.779 169.344 459.779 168.672C459.779 167.968 459.547 167.408 459.083 166.992C458.635 166.576 458.043 166.368 457.307 166.368ZM470.852 167.28C470.852 165.904 471.108 164.696 471.62 163.656C472.148 162.616 472.86 161.816 473.756 161.256C474.652 160.696 475.652 160.416 476.756 160.416C477.7 160.416 478.524 160.608 479.228 160.992C479.948 161.376 480.5 161.88 480.884 162.504V160.608H484.988V174H480.884V172.104C480.484 172.728 479.924 173.232 479.204 173.616C478.5 174 477.676 174.192 476.732 174.192C475.644 174.192 474.652 173.912 473.756 173.352C472.86 172.776 472.148 171.968 471.62 170.928C471.108 169.872 470.852 168.656 470.852 167.28ZM480.884 167.304C480.884 166.28 480.596 165.472 480.02 164.88C479.46 164.288 478.772 163.992 477.956 163.992C477.14 163.992 476.444 164.288 475.868 164.88C475.308 165.456 475.028 166.256 475.028 167.28C475.028 168.304 475.308 169.12 475.868 169.728C476.444 170.32 477.14 170.616 477.956 170.616C478.772 170.616 479.46 170.32 480.02 169.728C480.596 169.136 480.884 168.328 480.884 167.304ZM496.117 160.464C497.685 160.464 498.933 160.976 499.861 162C500.805 163.008 501.277 164.4 501.277 166.176V174H497.197V166.728C497.197 165.832 496.965 165.136 496.501 164.64C496.037 164.144 495.413 163.896 494.629 163.896C493.845 163.896 493.221 164.144 492.757 164.64C492.293 165.136 492.061 165.832 492.061 166.728V174H487.957V160.608H492.061V162.384C492.477 161.792 493.037 161.328 493.741 160.992C494.445 160.64 495.237 160.464 496.117 160.464ZM510.225 174.192C508.913 174.192 507.729 173.912 506.673 173.352C505.633 172.792 504.809 171.992 504.201 170.952C503.609 169.912 503.313 168.696 503.313 167.304C503.313 165.928 503.617 164.72 504.225 163.68C504.833 162.624 505.665 161.816 506.721 161.256C507.777 160.696 508.961 160.416 510.273 160.416C511.585 160.416 512.769 160.696 513.825 161.256C514.881 161.816 515.713 162.624 516.321 163.68C516.929 164.72 517.233 165.928 517.233 167.304C517.233 168.68 516.921 169.896 516.297 170.952C515.689 171.992 514.849 172.792 513.777 173.352C512.721 173.912 511.537 174.192 510.225 174.192ZM510.225 170.64C511.009 170.64 511.673 170.352 512.217 169.776C512.777 169.2 513.057 168.376 513.057 167.304C513.057 166.232 512.785 165.408 512.241 164.832C511.713 164.256 511.057 163.968 510.273 163.968C509.473 163.968 508.809 164.256 508.281 164.832C507.753 165.392 507.489 166.216 507.489 167.304C507.489 168.376 507.745 169.2 508.257 169.776C508.785 170.352 509.441 170.64 510.225 170.64ZM524.858 174.192C523.69 174.192 522.65 173.992 521.738 173.592C520.826 173.192 520.106 172.648 519.578 171.96C519.05 171.256 518.754 170.472 518.69 169.608H522.746C522.794 170.072 523.01 170.448 523.394 170.736C523.778 171.024 524.25 171.168 524.81 171.168C525.322 171.168 525.714 171.072 525.986 170.88C526.274 170.672 526.418 170.408 526.418 170.088C526.418 169.704 526.218 169.424 525.818 169.248C525.418 169.056 524.77 168.848 523.874 168.624C522.914 168.4 522.114 168.168 521.474 167.928C520.834 167.672 520.282 167.28 519.818 166.752C519.354 166.208 519.122 165.48 519.122 164.568C519.122 163.8 519.33 163.104 519.746 162.48C520.178 161.84 520.802 161.336 521.618 160.968C522.45 160.6 523.434 160.416 524.57 160.416C526.25 160.416 527.57 160.832 528.53 161.664C529.506 162.496 530.066 163.6 530.21 164.976H526.418C526.354 164.512 526.146 164.144 525.794 163.872C525.458 163.6 525.01 163.464 524.45 163.464C523.97 163.464 523.602 163.56 523.346 163.752C523.09 163.928 522.962 164.176 522.962 164.496C522.962 164.88 523.162 165.168 523.562 165.36C523.978 165.552 524.618 165.744 525.482 165.936C526.474 166.192 527.282 166.448 527.906 166.704C528.53 166.944 529.074 167.344 529.538 167.904C530.018 168.448 530.266 169.184 530.282 170.112C530.282 170.896 530.058 171.6 529.61 172.224C529.178 172.832 528.546 173.312 527.714 173.664C526.898 174.016 525.946 174.192 524.858 174.192ZM546.039 160.464C547.607 160.464 548.855 160.976 549.783 162C550.727 163.008 551.199 164.4 551.199 166.176V174H547.119V166.728C547.119 165.832 546.887 165.136 546.423 164.64C545.959 164.144 545.335 163.896 544.551 163.896C543.767 163.896 543.143 164.144 542.679 164.64C542.215 165.136 541.983 165.832 541.983 166.728V174H537.879V160.608H541.983V162.384C542.399 161.792 542.959 161.328 543.663 160.992C544.367 160.64 545.159 160.464 546.039 160.464ZM560.147 174.192C558.835 174.192 557.651 173.912 556.595 173.352C555.555 172.792 554.731 171.992 554.123 170.952C553.531 169.912 553.235 168.696 553.235 167.304C553.235 165.928 553.539 164.72 554.146 163.68C554.755 162.624 555.587 161.816 556.643 161.256C557.699 160.696 558.883 160.416 560.195 160.416C561.507 160.416 562.691 160.696 563.747 161.256C564.803 161.816 565.635 162.624 566.243 163.68C566.851 164.72 567.155 165.928 567.155 167.304C567.155 168.68 566.843 169.896 566.219 170.952C565.611 171.992 564.771 172.792 563.699 173.352C562.643 173.912 561.459 174.192 560.147 174.192ZM560.147 170.64C560.931 170.64 561.595 170.352 562.139 169.776C562.699 169.2 562.979 168.376 562.979 167.304C562.979 166.232 562.707 165.408 562.163 164.832C561.635 164.256 560.979 163.968 560.195 163.968C559.395 163.968 558.731 164.256 558.203 164.832C557.675 165.392 557.411 166.216 557.411 167.304C557.411 168.376 557.667 169.2 558.179 169.776C558.707 170.352 559.363 170.64 560.147 170.64ZM453.576 196.464C455.24 196.464 456.56 196.968 457.536 197.976C458.528 198.984 459.024 200.384 459.024 202.176V210H454.944V202.728C454.944 201.864 454.712 201.2 454.248 200.736C453.8 200.256 453.176 200.016 452.376 200.016C451.576 200.016 450.944 200.256 450.48 200.736C450.032 201.2 449.808 201.864 449.808 202.728V210H445.728V202.728C445.728 201.864 445.496 201.2 445.032 200.736C444.584 200.256 443.96 200.016 443.16 200.016C442.36 200.016 441.728 200.256 441.264 200.736C440.816 201.2 440.592 201.864 440.592 202.728V210H436.488V196.608H440.592V198.288C441.008 197.728 441.552 197.288 442.224 196.968C442.896 196.632 443.656 196.464 444.504 196.464C445.512 196.464 446.408 196.68 447.192 197.112C447.992 197.544 448.616 198.16 449.064 198.96C449.528 198.224 450.16 197.624 450.96 197.16C451.76 196.696 452.632 196.464 453.576 196.464ZM461.078 203.28C461.078 201.904 461.334 200.696 461.846 199.656C462.374 198.616 463.086 197.816 463.982 197.256C464.878 196.696 465.878 196.416 466.982 196.416C467.926 196.416 468.75 196.608 469.454 196.992C470.174 197.376 470.726 197.88 471.11 198.504V196.608H475.214V210H471.11V208.104C470.71 208.728 470.15 209.232 469.43 209.616C468.726 210 467.902 210.192 466.958 210.192C465.87 210.192 464.878 209.912 463.982 209.352C463.086 208.776 462.374 207.968 461.846 206.928C461.334 205.872 461.078 204.656 461.078 203.28ZM471.11 203.304C471.11 202.28 470.822 201.472 470.246 200.88C469.686 200.288 468.998 199.992 468.182 199.992C467.366 199.992 466.67 200.288 466.094 200.88C465.534 201.456 465.254 202.256 465.254 203.28C465.254 204.304 465.534 205.12 466.094 205.728C466.67 206.32 467.366 206.616 468.182 206.616C468.998 206.616 469.686 206.32 470.246 205.728C470.822 205.136 471.11 204.328 471.11 203.304ZM482.287 198.84C482.767 198.104 483.367 197.528 484.087 197.112C484.807 196.68 485.607 196.464 486.487 196.464V200.808H485.359C484.335 200.808 483.567 201.032 483.055 201.48C482.543 201.912 482.287 202.68 482.287 203.784V210H478.183V196.608H482.287V198.84ZM487.633 203.304C487.633 201.912 487.913 200.696 488.473 199.656C489.049 198.616 489.841 197.816 490.849 197.256C491.873 196.696 493.041 196.416 494.353 196.416C496.033 196.416 497.433 196.856 498.553 197.736C499.689 198.616 500.433 199.856 500.785 201.456H496.417C496.049 200.432 495.337 199.92 494.281 199.92C493.529 199.92 492.929 200.216 492.481 200.808C492.033 201.384 491.809 202.216 491.809 203.304C491.809 204.392 492.033 205.232 492.481 205.824C492.929 206.4 493.529 206.688 494.281 206.688C495.337 206.688 496.049 206.176 496.417 205.152H500.785C500.433 206.72 499.689 207.952 498.553 208.848C497.417 209.744 496.017 210.192 494.353 210.192C493.041 210.192 491.873 209.912 490.849 209.352C489.841 208.792 489.049 207.992 488.473 206.952C487.913 205.912 487.633 204.696 487.633 203.304ZM502.164 203.28C502.164 201.904 502.42 200.696 502.932 199.656C503.46 198.616 504.172 197.816 505.068 197.256C505.964 196.696 506.964 196.416 508.068 196.416C509.012 196.416 509.836 196.608 510.54 196.992C511.26 197.376 511.812 197.88 512.196 198.504V196.608H516.3V210H512.196V208.104C511.796 208.728 511.236 209.232 510.516 209.616C509.812 210 508.988 210.192 508.044 210.192C506.956 210.192 505.964 209.912 505.068 209.352C504.172 208.776 503.46 207.968 502.932 206.928C502.42 205.872 502.164 204.656 502.164 203.28ZM512.196 203.304C512.196 202.28 511.908 201.472 511.332 200.88C510.772 200.288 510.084 199.992 509.268 199.992C508.452 199.992 507.756 200.288 507.18 200.88C506.62 201.456 506.34 202.256 506.34 203.28C506.34 204.304 506.62 205.12 507.18 205.728C507.756 206.32 508.452 206.616 509.268 206.616C510.084 206.616 510.772 206.32 511.332 205.728C511.908 205.136 512.196 204.328 512.196 203.304ZM518.453 203.28C518.453 201.904 518.709 200.696 519.221 199.656C519.749 198.616 520.461 197.816 521.357 197.256C522.253 196.696 523.253 196.416 524.357 196.416C525.237 196.416 526.037 196.6 526.757 196.968C527.493 197.336 528.069 197.832 528.485 198.456V192.24H532.589V210H528.485V208.08C528.101 208.72 527.549 209.232 526.829 209.616C526.125 210 525.301 210.192 524.357 210.192C523.253 210.192 522.253 209.912 521.357 209.352C520.461 208.776 519.749 207.968 519.221 206.928C518.709 205.872 518.453 204.656 518.453 203.28ZM528.485 203.304C528.485 202.28 528.197 201.472 527.621 200.88C527.061 200.288 526.373 199.992 525.557 199.992C524.741 199.992 524.045 200.288 523.469 200.88C522.909 201.456 522.629 202.256 522.629 203.28C522.629 204.304 522.909 205.12 523.469 205.728C524.045 206.32 524.741 206.616 525.557 206.616C526.373 206.616 527.061 206.32 527.621 205.728C528.197 205.136 528.485 204.328 528.485 203.304ZM541.654 210.192C540.342 210.192 539.158 209.912 538.102 209.352C537.062 208.792 536.238 207.992 535.63 206.952C535.038 205.912 534.742 204.696 534.742 203.304C534.742 201.928 535.046 200.72 535.654 199.68C536.262 198.624 537.094 197.816 538.15 197.256C539.206 196.696 540.39 196.416 541.702 196.416C543.014 196.416 544.198 196.696 545.254 197.256C546.31 197.816 547.142 198.624 547.75 199.68C548.358 200.72 548.662 201.928 548.662 203.304C548.662 204.68 548.35 205.896 547.726 206.952C547.118 207.992 546.278 208.792 545.206 209.352C544.15 209.912 542.966 210.192 541.654 210.192ZM541.654 206.64C542.438 206.64 543.102 206.352 543.646 205.776C544.206 205.2 544.486 204.376 544.486 203.304C544.486 202.232 544.214 201.408 543.67 200.832C543.142 200.256 542.486 199.968 541.702 199.968C540.902 199.968 540.238 200.256 539.71 200.832C539.182 201.392 538.918 202.216 538.918 203.304C538.918 204.376 539.174 205.2 539.686 205.776C540.214 206.352 540.87 206.64 541.654 206.64Z" fill="#074C3D"/>
<path d="M53.568 157.152V174H49.464V163.896L45.696 174H42.384L38.592 163.872V174H34.488V157.152H39.336L44.064 168.816L48.744 157.152H53.568ZM69.1432 167.088C69.1432 167.472 69.1193 167.872 69.0713 168.288H59.7833C59.8473 169.12 60.1113 169.76 60.5753 170.208C61.0553 170.64 61.6393 170.856 62.3273 170.856C63.3513 170.856 64.0633 170.424 64.4633 169.56H68.8313C68.6073 170.44 68.1993 171.232 67.6073 171.936C67.0313 172.64 66.3033 173.192 65.4233 173.592C64.5433 173.992 63.5593 174.192 62.4713 174.192C61.1593 174.192 59.9913 173.912 58.9673 173.352C57.9433 172.792 57.1433 171.992 56.5673 170.952C55.9913 169.912 55.7033 168.696 55.7033 167.304C55.7033 165.912 55.9833 164.696 56.5433 163.656C57.1193 162.616 57.9193 161.816 58.9433 161.256C59.9673 160.696 61.1433 160.416 62.4713 160.416C63.7673 160.416 64.9193 160.688 65.9273 161.232C66.9353 161.776 67.7193 162.552 68.2793 163.56C68.8553 164.568 69.1432 165.744 69.1432 167.088ZM64.9433 166.008C64.9433 165.304 64.7033 164.744 64.2233 164.328C63.7433 163.912 63.1433 163.704 62.4233 163.704C61.7353 163.704 61.1513 163.904 60.6713 164.304C60.2073 164.704 59.9193 165.272 59.8073 166.008H64.9433ZM75.4123 156.24V174H71.3083V156.24H75.4123ZM86.6184 160.464C88.1544 160.464 89.3864 160.976 90.3144 162C91.2424 163.008 91.7064 164.4 91.7064 166.176V174H87.6264V166.728C87.6264 165.832 87.3944 165.136 86.9304 164.64C86.4664 164.144 85.8424 163.896 85.0584 163.896C84.2744 163.896 83.6504 164.144 83.1864 164.64C82.7224 165.136 82.4904 165.832 82.4904 166.728V174H78.3864V156.24H82.4904V162.408C82.9064 161.816 83.4744 161.344 84.1944 160.992C84.9144 160.64 85.7224 160.464 86.6184 160.464ZM100.654 174.192C99.3423 174.192 98.1583 173.912 97.1023 173.352C96.0623 172.792 95.2383 171.992 94.6303 170.952C94.0383 169.912 93.7423 168.696 93.7423 167.304C93.7423 165.928 94.0463 164.72 94.6543 163.68C95.2623 162.624 96.0943 161.816 97.1503 161.256C98.2063 160.696 99.3903 160.416 100.702 160.416C102.014 160.416 103.198 160.696 104.254 161.256C105.31 161.816 106.142 162.624 106.75 163.68C107.358 164.72 107.662 165.928 107.662 167.304C107.662 168.68 107.35 169.896 106.726 170.952C106.118 171.992 105.278 172.792 104.206 173.352C103.15 173.912 101.966 174.192 100.654 174.192ZM100.654 170.64C101.438 170.64 102.102 170.352 102.646 169.776C103.206 169.2 103.486 168.376 103.486 167.304C103.486 166.232 103.214 165.408 102.67 164.832C102.142 164.256 101.486 163.968 100.702 163.968C99.9023 163.968 99.2383 164.256 98.7103 164.832C98.1823 165.392 97.9183 166.216 97.9183 167.304C97.9183 168.376 98.1743 169.2 98.6863 169.776C99.2143 170.352 99.8703 170.64 100.654 170.64ZM113.944 162.84C114.424 162.104 115.024 161.528 115.744 161.112C116.464 160.68 117.264 160.464 118.144 160.464V164.808H117.016C115.992 164.808 115.224 165.032 114.712 165.48C114.2 165.912 113.944 166.68 113.944 167.784V174H109.84V160.608H113.944V162.84ZM45.456 193.152V196.44H38.592V199.992H43.728V203.184H38.592V210H34.488V193.152H45.456ZM51.717 198.84C52.197 198.104 52.797 197.528 53.517 197.112C54.237 196.68 55.037 196.464 55.917 196.464V200.808H54.789C53.765 200.808 52.997 201.032 52.485 201.48C51.973 201.912 51.717 202.68 51.717 203.784V210H47.613V196.608H51.717V198.84ZM57.0626 203.28C57.0626 201.904 57.3186 200.696 57.8306 199.656C58.3586 198.616 59.0706 197.816 59.9666 197.256C60.8626 196.696 61.8626 196.416 62.9666 196.416C63.9106 196.416 64.7346 196.608 65.4386 196.992C66.1586 197.376 66.7106 197.88 67.0946 198.504V196.608H71.1986V210H67.0946V208.104C66.6946 208.728 66.1346 209.232 65.4146 209.616C64.7106 210 63.8866 210.192 62.9426 210.192C61.8546 210.192 60.8626 209.912 59.9666 209.352C59.0706 208.776 58.3586 207.968 57.8306 206.928C57.3186 205.872 57.0626 204.656 57.0626 203.28ZM67.0946 203.304C67.0946 202.28 66.8066 201.472 66.2306 200.88C65.6706 200.288 64.9826 199.992 64.1666 199.992C63.3506 199.992 62.6546 200.288 62.0786 200.88C61.5186 201.456 61.2386 202.256 61.2386 203.28C61.2386 204.304 61.5186 205.12 62.0786 205.728C62.6546 206.32 63.3506 206.616 64.1666 206.616C64.9826 206.616 65.6706 206.32 66.2306 205.728C66.8066 205.136 67.0946 204.328 67.0946 203.304ZM82.3277 196.464C83.8957 196.464 85.1437 196.976 86.0717 198C87.0157 199.008 87.4877 200.4 87.4877 202.176V210H83.4077V202.728C83.4077 201.832 83.1757 201.136 82.7117 200.64C82.2477 200.144 81.6237 199.896 80.8397 199.896C80.0557 199.896 79.4317 200.144 78.9677 200.64C78.5037 201.136 78.2717 201.832 78.2717 202.728V210H74.1677V196.608H78.2717V198.384C78.6877 197.792 79.2477 197.328 79.9517 196.992C80.6557 196.64 81.4477 196.464 82.3277 196.464ZM89.5236 203.328C89.5236 202 89.7956 200.816 90.3396 199.776C90.8996 198.736 91.6436 197.928 92.5716 197.352C93.5156 196.76 94.5396 196.464 95.6436 196.464C96.4916 196.464 97.2516 196.616 97.9236 196.92C98.5956 197.208 99.1396 197.616 99.5556 198.144V196.608H103.66V216.384H99.5556V208.32C99.0916 208.88 98.5236 209.328 97.8516 209.664C97.1956 210 96.4436 210.168 95.5956 210.168C94.5076 210.168 93.4996 209.88 92.5716 209.304C91.6436 208.728 90.8996 207.92 90.3396 206.88C89.7956 205.84 89.5236 204.656 89.5236 203.328ZM99.5556 203.304C99.5556 202.584 99.4116 201.984 99.1236 201.504C98.8516 201.008 98.4916 200.64 98.0436 200.4C97.5956 200.144 97.1236 200.016 96.6276 200.016C96.1476 200.016 95.6836 200.144 95.2356 200.4C94.7876 200.64 94.4196 201.008 94.1316 201.504C93.8436 202 93.6996 202.608 93.6996 203.328C93.6996 204.048 93.8436 204.656 94.1316 205.152C94.4196 205.632 94.7876 206 95.2356 206.256C95.6836 206.496 96.1476 206.616 96.6276 206.616C97.1076 206.616 97.5716 206.496 98.0196 206.256C98.4836 206 98.8516 205.624 99.1236 205.128C99.4116 204.632 99.5556 204.024 99.5556 203.304ZM119.853 196.608V210H115.749V208.176C115.333 208.768 114.765 209.248 114.045 209.616C113.341 209.968 112.557 210.144 111.693 210.144C110.669 210.144 109.765 209.92 108.981 209.472C108.197 209.008 107.589 208.344 107.157 207.48C106.725 206.616 106.509 205.6 106.509 204.432V196.608H110.589V203.88C110.589 204.776 110.821 205.472 111.285 205.968C111.749 206.464 112.373 206.712 113.157 206.712C113.957 206.712 114.589 206.464 115.053 205.968C115.517 205.472 115.749 204.776 115.749 203.88V196.608H119.853ZM124.865 195.216C124.145 195.216 123.553 195.008 123.089 194.592C122.641 194.16 122.417 193.632 122.417 193.008C122.417 192.368 122.641 191.84 123.089 191.424C123.553 190.992 124.145 190.776 124.865 190.776C125.569 190.776 126.145 190.992 126.593 191.424C127.057 191.84 127.289 192.368 127.289 193.008C127.289 193.632 127.057 194.16 126.593 194.592C126.145 195.008 125.569 195.216 124.865 195.216ZM126.905 196.608V210H122.801V196.608H126.905ZM129.063 203.28C129.063 201.904 129.319 200.696 129.831 199.656C130.359 198.616 131.071 197.816 131.967 197.256C132.863 196.696 133.863 196.416 134.967 196.416C135.911 196.416 136.735 196.608 137.439 196.992C138.159 197.376 138.711 197.88 139.095 198.504V196.608H143.199V210H139.095V208.104C138.695 208.728 138.135 209.232 137.415 209.616C136.711 210 135.887 210.192 134.943 210.192C133.855 210.192 132.863 209.912 131.967 209.352C131.071 208.776 130.359 207.968 129.831 206.928C129.319 205.872 129.063 204.656 129.063 203.28ZM139.095 203.304C139.095 202.28 138.807 201.472 138.231 200.88C137.671 200.288 136.983 199.992 136.167 199.992C135.351 199.992 134.655 200.288 134.079 200.88C133.519 201.456 133.239 202.256 133.239 203.28C133.239 204.304 133.519 205.12 134.079 205.728C134.655 206.32 135.351 206.616 136.167 206.616C136.983 206.616 137.671 206.32 138.231 205.728C138.807 205.136 139.095 204.328 139.095 203.304ZM150.438 203.28C150.438 201.904 150.694 200.696 151.206 199.656C151.734 198.616 152.446 197.816 153.342 197.256C154.238 196.696 155.238 196.416 156.342 196.416C157.222 196.416 158.022 196.6 158.742 196.968C159.478 197.336 160.054 197.832 160.47 198.456V192.24H164.574V210H160.47V208.08C160.086 208.72 159.534 209.232 158.814 209.616C158.11 210 157.286 210.192 156.342 210.192C155.238 210.192 154.238 209.912 153.342 209.352C152.446 208.776 151.734 207.968 151.206 206.928C150.694 205.872 150.438 204.656 150.438 203.28ZM160.47 203.304C160.47 202.28 160.182 201.472 159.606 200.88C159.046 200.288 158.358 199.992 157.542 199.992C156.726 199.992 156.03 200.288 155.454 200.88C154.894 201.456 154.614 202.256 154.614 203.28C154.614 204.304 154.894 205.12 155.454 205.728C156.03 206.32 156.726 206.616 157.542 206.616C158.358 206.616 159.046 206.32 159.606 205.728C160.182 205.136 160.47 204.328 160.47 203.304ZM173.639 210.192C172.327 210.192 171.143 209.912 170.087 209.352C169.047 208.792 168.223 207.992 167.615 206.952C167.023 205.912 166.727 204.696 166.727 203.304C166.727 201.928 167.031 200.72 167.639 199.68C168.247 198.624 169.079 197.816 170.135 197.256C171.191 196.696 172.375 196.416 173.687 196.416C174.999 196.416 176.183 196.696 177.239 197.256C178.295 197.816 179.127 198.624 179.735 199.68C180.343 200.72 180.647 201.928 180.647 203.304C180.647 204.68 180.335 205.896 179.711 206.952C179.103 207.992 178.263 208.792 177.191 209.352C176.135 209.912 174.951 210.192 173.639 210.192ZM173.639 206.64C174.423 206.64 175.087 206.352 175.631 205.776C176.191 205.2 176.471 204.376 176.471 203.304C176.471 202.232 176.199 201.408 175.655 200.832C175.127 200.256 174.471 199.968 173.687 199.968C172.887 199.968 172.223 200.256 171.695 200.832C171.167 201.392 170.903 202.216 170.903 203.304C170.903 204.376 171.159 205.2 171.671 205.776C172.199 206.352 172.855 206.64 173.639 206.64ZM44.688 237.36C45.664 237.568 46.448 238.056 47.04 238.824C47.632 239.576 47.928 240.44 47.928 241.416C47.928 242.824 47.432 243.944 46.44 244.776C45.464 245.592 44.096 246 42.336 246H34.488V229.152H42.072C43.784 229.152 45.12 229.544 46.08 230.328C47.056 231.112 47.544 232.176 47.544 233.52C47.544 234.512 47.28 235.336 46.752 235.992C46.24 236.648 45.552 237.104 44.688 237.36ZM38.592 235.968H41.28C41.952 235.968 42.464 235.824 42.816 235.536C43.184 235.232 43.368 234.792 43.368 234.216C43.368 233.64 43.184 233.2 42.816 232.896C42.464 232.592 41.952 232.44 41.28 232.44H38.592V235.968ZM41.616 242.688C42.304 242.688 42.832 242.536 43.2 242.232C43.584 241.912 43.776 241.456 43.776 240.864C43.776 240.272 43.576 239.808 43.176 239.472C42.792 239.136 42.256 238.968 41.568 238.968H38.592V242.688H41.616ZM54.4123 234.84C54.8923 234.104 55.4923 233.528 56.2123 233.112C56.9323 232.68 57.7323 232.464 58.6123 232.464V236.808H57.4843C56.4603 236.808 55.6923 237.032 55.1803 237.48C54.6683 237.912 54.4123 238.68 54.4123 239.784V246H50.3083V232.608H54.4123V234.84ZM59.7579 239.28C59.7579 237.904 60.0139 236.696 60.5259 235.656C61.0539 234.616 61.7659 233.816 62.6619 233.256C63.5579 232.696 64.5579 232.416 65.6619 232.416C66.6059 232.416 67.4299 232.608 68.1339 232.992C68.8539 233.376 69.4059 233.88 69.7899 234.504V232.608H73.8939V246H69.7899V244.104C69.3899 244.728 68.8299 245.232 68.1099 245.616C67.4059 246 66.5819 246.192 65.6379 246.192C64.5499 246.192 63.5579 245.912 62.6619 245.352C61.7659 244.776 61.0539 243.968 60.5259 242.928C60.0139 241.872 59.7579 240.656 59.7579 239.28ZM69.7899 239.304C69.7899 238.28 69.5019 237.472 68.9259 236.88C68.3659 236.288 67.6779 235.992 66.8619 235.992C66.0459 235.992 65.3499 236.288 64.7739 236.88C64.2139 237.456 63.9339 238.256 63.9339 239.28C63.9339 240.304 64.2139 241.12 64.7739 241.728C65.3499 242.32 66.0459 242.616 66.8619 242.616C67.6779 242.616 68.3659 242.32 68.9259 241.728C69.5019 241.136 69.7899 240.328 69.7899 239.304ZM82.311 246.192C81.143 246.192 80.103 245.992 79.191 245.592C78.279 245.192 77.559 244.648 77.031 243.96C76.503 243.256 76.207 242.472 76.143 241.608H80.199C80.247 242.072 80.463 242.448 80.847 242.736C81.231 243.024 81.703 243.168 82.263 243.168C82.775 243.168 83.167 243.072 83.439 242.88C83.727 242.672 83.871 242.408 83.871 242.088C83.871 241.704 83.671 241.424 83.271 241.248C82.871 241.056 82.223 240.848 81.327 240.624C80.367 240.4 79.567 240.168 78.927 239.928C78.287 239.672 77.735 239.28 77.271 238.752C76.807 238.208 76.575 237.48 76.575 236.568C76.575 235.8 76.783 235.104 77.199 234.48C77.631 233.84 78.255 233.336 79.071 232.968C79.903 232.6 80.887 232.416 82.023 232.416C83.703 232.416 85.023 232.832 85.983 233.664C86.959 234.496 87.519 235.6 87.663 236.976H83.871C83.807 236.512 83.599 236.144 83.247 235.872C82.911 235.6 82.463 235.464 81.903 235.464C81.423 235.464 81.055 235.56 80.799 235.752C80.543 235.928 80.415 236.176 80.415 236.496C80.415 236.88 80.615 237.168 81.015 237.36C81.431 237.552 82.071 237.744 82.935 237.936C83.927 238.192 84.735 238.448 85.359 238.704C85.983 238.944 86.527 239.344 86.991 239.904C87.471 240.448 87.719 241.184 87.735 242.112C87.735 242.896 87.511 243.6 87.063 244.224C86.631 244.832 85.999 245.312 85.167 245.664C84.351 246.016 83.399 246.192 82.311 246.192ZM92.3098 231.216C91.5898 231.216 90.9978 231.008 90.5338 230.592C90.0858 230.16 89.8618 229.632 89.8618 229.008C89.8618 228.368 90.0858 227.84 90.5338 227.424C90.9978 226.992 91.5898 226.776 92.3098 226.776C93.0138 226.776 93.5898 226.992 94.0378 227.424C94.5018 227.84 94.7338 228.368 94.7338 229.008C94.7338 229.632 94.5018 230.16 94.0378 230.592C93.5898 231.008 93.0138 231.216 92.3098 231.216ZM94.3498 232.608V246H90.2458V232.608H94.3498ZM101.428 228.24V246H97.3239V228.24H101.428Z" fill="#074C3D"/>
<path d="M243.68 182.1V183.96H237.78V188.06H242.38V189.92H237.78V196H235.5V182.1H243.68ZM245.033 190.44C245.033 189.333 245.26 188.353 245.713 187.5C246.18 186.647 246.806 185.987 247.593 185.52C248.393 185.04 249.273 184.8 250.233 184.8C251.1 184.8 251.853 184.973 252.493 185.32C253.146 185.653 253.666 186.073 254.053 186.58V184.98H256.353V196H254.053V194.36C253.666 194.88 253.14 195.313 252.473 195.66C251.806 196.007 251.046 196.18 250.193 196.18C249.246 196.18 248.38 195.94 247.593 195.46C246.806 194.967 246.18 194.287 245.713 193.42C245.26 192.54 245.033 191.547 245.033 190.44ZM254.053 190.48C254.053 189.72 253.893 189.06 253.573 188.5C253.266 187.94 252.86 187.513 252.353 187.22C251.846 186.927 251.3 186.78 250.713 186.78C250.126 186.78 249.58 186.927 249.073 187.22C248.566 187.5 248.153 187.92 247.833 188.48C247.526 189.027 247.373 189.68 247.373 190.44C247.373 191.2 247.526 191.867 247.833 192.44C248.153 193.013 248.566 193.453 249.073 193.76C249.593 194.053 250.14 194.2 250.713 194.2C251.3 194.2 251.846 194.053 252.353 193.76C252.86 193.467 253.266 193.04 253.573 192.48C253.893 191.907 254.053 191.24 254.053 190.48ZM261.628 186.58C261.961 186.02 262.401 185.587 262.948 185.28C263.508 184.96 264.168 184.8 264.928 184.8V187.16H264.348C263.454 187.16 262.774 187.387 262.308 187.84C261.854 188.293 261.628 189.08 261.628 190.2V196H259.348V184.98H261.628V186.58ZM280.363 184.8C281.23 184.8 282.003 184.98 282.683 185.34C283.377 185.7 283.917 186.233 284.303 186.94C284.703 187.647 284.903 188.5 284.903 189.5V196H282.643V189.84C282.643 188.853 282.397 188.1 281.903 187.58C281.41 187.047 280.737 186.78 279.883 186.78C279.03 186.78 278.35 187.047 277.843 187.58C277.35 188.1 277.103 188.853 277.103 189.84V196H274.843V189.84C274.843 188.853 274.597 188.1 274.103 187.58C273.61 187.047 272.937 186.78 272.083 186.78C271.23 186.78 270.55 187.047 270.043 187.58C269.55 188.1 269.303 188.853 269.303 189.84V196H267.023V184.98H269.303V186.24C269.677 185.787 270.15 185.433 270.723 185.18C271.297 184.927 271.91 184.8 272.563 184.8C273.443 184.8 274.23 184.987 274.923 185.36C275.617 185.733 276.15 186.273 276.523 186.98C276.857 186.313 277.377 185.787 278.083 185.4C278.79 185 279.55 184.8 280.363 184.8ZM287.045 190.44C287.045 189.333 287.271 188.353 287.725 187.5C288.191 186.647 288.818 185.987 289.605 185.52C290.405 185.04 291.285 184.8 292.245 184.8C293.111 184.8 293.865 184.973 294.505 185.32C295.158 185.653 295.678 186.073 296.065 186.58V184.98H298.365V196H296.065V194.36C295.678 194.88 295.151 195.313 294.485 195.66C293.818 196.007 293.058 196.18 292.205 196.18C291.258 196.18 290.391 195.94 289.605 195.46C288.818 194.967 288.191 194.287 287.725 193.42C287.271 192.54 287.045 191.547 287.045 190.44ZM296.065 190.48C296.065 189.72 295.905 189.06 295.585 188.5C295.278 187.94 294.871 187.513 294.365 187.22C293.858 186.927 293.311 186.78 292.725 186.78C292.138 186.78 291.591 186.927 291.085 187.22C290.578 187.5 290.165 187.92 289.845 188.48C289.538 189.027 289.385 189.68 289.385 190.44C289.385 191.2 289.538 191.867 289.845 192.44C290.165 193.013 290.578 193.453 291.085 193.76C291.605 194.053 292.151 194.2 292.725 194.2C293.311 194.2 293.858 194.053 294.365 193.76C294.871 193.467 295.278 193.04 295.585 192.48C295.905 191.907 296.065 191.24 296.065 190.48ZM295.145 182.02L290.725 184.2V182.52L295.145 180.08V182.02ZM300.599 190.48C300.599 189.347 300.826 188.353 301.279 187.5C301.746 186.633 302.386 185.967 303.199 185.5C304.013 185.033 304.946 184.8 305.999 184.8C307.333 184.8 308.433 185.12 309.299 185.76C310.179 186.387 310.773 187.287 311.079 188.46H308.619C308.419 187.913 308.099 187.487 307.659 187.18C307.219 186.873 306.666 186.72 305.999 186.72C305.066 186.72 304.319 187.053 303.759 187.72C303.213 188.373 302.939 189.293 302.939 190.48C302.939 191.667 303.213 192.593 303.759 193.26C304.319 193.927 305.066 194.26 305.999 194.26C307.319 194.26 308.193 193.68 308.619 192.52H311.079C310.759 193.64 310.159 194.533 309.279 195.2C308.399 195.853 307.306 196.18 305.999 196.18C304.946 196.18 304.013 195.947 303.199 195.48C302.386 195 301.746 194.333 301.279 193.48C300.826 192.613 300.599 191.613 300.599 190.48ZM314.512 183.52C314.098 183.52 313.752 183.38 313.472 183.1C313.192 182.82 313.052 182.473 313.052 182.06C313.052 181.647 313.192 181.3 313.472 181.02C313.752 180.74 314.098 180.6 314.512 180.6C314.912 180.6 315.252 180.74 315.532 181.02C315.812 181.3 315.952 181.647 315.952 182.06C315.952 182.473 315.812 182.82 315.532 183.1C315.252 183.38 314.912 183.52 314.512 183.52ZM315.632 184.98V196H313.352V184.98H315.632ZM317.865 190.44C317.865 189.333 318.092 188.353 318.545 187.5C319.012 186.647 319.638 185.987 320.425 185.52C321.225 185.04 322.105 184.8 323.065 184.8C323.932 184.8 324.685 184.973 325.325 185.32C325.978 185.653 326.498 186.073 326.885 186.58V184.98H329.185V196H326.885V194.36C326.498 194.88 325.972 195.313 325.305 195.66C324.638 196.007 323.878 196.18 323.025 196.18C322.078 196.18 321.212 195.94 320.425 195.46C319.638 194.967 319.012 194.287 318.545 193.42C318.092 192.54 317.865 191.547 317.865 190.44ZM326.885 190.48C326.885 189.72 326.725 189.06 326.405 188.5C326.098 187.94 325.692 187.513 325.185 187.22C324.678 186.927 324.132 186.78 323.545 186.78C322.958 186.78 322.412 186.927 321.905 187.22C321.398 187.5 320.985 187.92 320.665 188.48C320.358 189.027 320.205 189.68 320.205 190.44C320.205 191.2 320.358 191.867 320.665 192.44C320.985 193.013 321.398 193.453 321.905 193.76C322.425 194.053 322.972 194.2 323.545 194.2C324.132 194.2 324.678 194.053 325.185 193.76C325.692 193.467 326.098 193.04 326.405 192.48C326.725 191.907 326.885 191.24 326.885 190.48ZM336.18 196.18C335.313 196.18 334.533 196.027 333.84 195.72C333.16 195.4 332.62 194.973 332.22 194.44C331.82 193.893 331.606 193.287 331.58 192.62H333.94C333.98 193.087 334.2 193.48 334.6 193.8C335.013 194.107 335.526 194.26 336.14 194.26C336.78 194.26 337.273 194.14 337.62 193.9C337.98 193.647 338.16 193.327 338.16 192.94C338.16 192.527 337.96 192.22 337.56 192.02C337.173 191.82 336.553 191.6 335.7 191.36C334.873 191.133 334.2 190.913 333.68 190.7C333.16 190.487 332.706 190.16 332.32 189.72C331.946 189.28 331.76 188.7 331.76 187.98C331.76 187.393 331.933 186.86 332.28 186.38C332.626 185.887 333.12 185.5 333.76 185.22C334.413 184.94 335.16 184.8 336 184.8C337.253 184.8 338.26 185.12 339.02 185.76C339.793 186.387 340.206 187.247 340.26 188.34H337.98C337.94 187.847 337.74 187.453 337.38 187.16C337.02 186.867 336.533 186.72 335.92 186.72C335.32 186.72 334.86 186.833 334.54 187.06C334.22 187.287 334.06 187.587 334.06 187.96C334.06 188.253 334.166 188.5 334.38 188.7C334.593 188.9 334.853 189.06 335.16 189.18C335.466 189.287 335.92 189.427 336.52 189.6C337.32 189.813 337.973 190.033 338.48 190.26C339 190.473 339.446 190.793 339.82 191.22C340.193 191.647 340.386 192.213 340.4 192.92C340.4 193.547 340.226 194.107 339.88 194.6C339.533 195.093 339.04 195.48 338.4 195.76C337.773 196.04 337.033 196.18 336.18 196.18ZM347.299 190.44C347.299 189.333 347.525 188.353 347.979 187.5C348.445 186.647 349.072 185.987 349.859 185.52C350.659 185.04 351.545 184.8 352.519 184.8C353.239 184.8 353.945 184.96 354.639 185.28C355.345 185.587 355.905 186 356.319 186.52V181.2H358.619V196H356.319V194.34C355.945 194.873 355.425 195.313 354.759 195.66C354.105 196.007 353.352 196.18 352.499 196.18C351.539 196.18 350.659 195.94 349.859 195.46C349.072 194.967 348.445 194.287 347.979 193.42C347.525 192.54 347.299 191.547 347.299 190.44ZM356.319 190.48C356.319 189.72 356.159 189.06 355.839 188.5C355.532 187.94 355.125 187.513 354.619 187.22C354.112 186.927 353.565 186.78 352.979 186.78C352.392 186.78 351.845 186.927 351.339 187.22C350.832 187.5 350.419 187.92 350.099 188.48C349.792 189.027 349.639 189.68 349.639 190.44C349.639 191.2 349.792 191.867 350.099 192.44C350.419 193.013 350.832 193.453 351.339 193.76C351.859 194.053 352.405 194.2 352.979 194.2C353.565 194.2 354.112 194.053 354.619 193.76C355.125 193.467 355.532 193.04 355.839 192.48C356.159 191.907 356.319 191.24 356.319 190.48ZM371.713 190.22C371.713 190.633 371.687 191.007 371.633 191.34H363.213C363.28 192.22 363.607 192.927 364.193 193.46C364.78 193.993 365.5 194.26 366.353 194.26C367.58 194.26 368.447 193.747 368.953 192.72H371.413C371.08 193.733 370.473 194.567 369.593 195.22C368.727 195.86 367.647 196.18 366.353 196.18C365.3 196.18 364.353 195.947 363.513 195.48C362.687 195 362.033 194.333 361.553 193.48C361.087 192.613 360.853 191.613 360.853 190.48C360.853 189.347 361.08 188.353 361.533 187.5C362 186.633 362.647 185.967 363.473 185.5C364.313 185.033 365.273 184.8 366.353 184.8C367.393 184.8 368.32 185.027 369.133 185.48C369.947 185.933 370.58 186.573 371.033 187.4C371.487 188.213 371.713 189.153 371.713 190.22ZM369.333 189.5C369.32 188.66 369.02 187.987 368.433 187.48C367.847 186.973 367.12 186.72 366.253 186.72C365.467 186.72 364.793 186.973 364.233 187.48C363.673 187.973 363.34 188.647 363.233 189.5H369.333ZM250.14 212.1V226H247.86V216.48L243.62 226H242.04L237.78 216.48V226H235.5V212.1H237.96L242.84 223L247.7 212.1H250.14ZM252.377 220.44C252.377 219.333 252.603 218.353 253.057 217.5C253.523 216.647 254.15 215.987 254.937 215.52C255.737 215.04 256.617 214.8 257.577 214.8C258.443 214.8 259.197 214.973 259.837 215.32C260.49 215.653 261.01 216.073 261.397 216.58V214.98H263.697V226H261.397V224.36C261.01 224.88 260.483 225.313 259.817 225.66C259.15 226.007 258.39 226.18 257.537 226.18C256.59 226.18 255.723 225.94 254.937 225.46C254.15 224.967 253.523 224.287 253.057 223.42C252.603 222.54 252.377 221.547 252.377 220.44ZM261.397 220.48C261.397 219.72 261.237 219.06 260.917 218.5C260.61 217.94 260.203 217.513 259.697 217.22C259.19 216.927 258.643 216.78 258.057 216.78C257.47 216.78 256.923 216.927 256.417 217.22C255.91 217.5 255.497 217.92 255.177 218.48C254.87 219.027 254.717 219.68 254.717 220.44C254.717 221.2 254.87 221.867 255.177 222.44C255.497 223.013 255.91 223.453 256.417 223.76C256.937 224.053 257.483 224.2 258.057 224.2C258.643 224.2 259.19 224.053 259.697 223.76C260.203 223.467 260.61 223.04 260.917 222.48C261.237 221.907 261.397 221.24 261.397 220.48ZM272.251 214.8C273.118 214.8 273.891 214.98 274.571 215.34C275.265 215.7 275.805 216.233 276.191 216.94C276.578 217.647 276.771 218.5 276.771 219.5V226H274.511V219.84C274.511 218.853 274.265 218.1 273.771 217.58C273.278 217.047 272.605 216.78 271.751 216.78C270.898 216.78 270.218 217.047 269.711 217.58C269.218 218.1 268.971 218.853 268.971 219.84V226H266.691V214.98H268.971V216.24C269.345 215.787 269.818 215.433 270.391 215.18C270.978 214.927 271.598 214.8 272.251 214.8ZM280.84 213.52C280.426 213.52 280.08 213.38 279.8 213.1C279.52 212.82 279.38 212.473 279.38 212.06C279.38 211.647 279.52 211.3 279.8 211.02C280.08 210.74 280.426 210.6 280.84 210.6C281.24 210.6 281.58 210.74 281.86 211.02C282.14 211.3 282.28 211.647 282.28 212.06C282.28 212.473 282.14 212.82 281.86 213.1C281.58 213.38 281.24 213.52 280.84 213.52ZM281.96 214.98V226H279.68V214.98H281.96ZM287.233 216.6C287.62 216.093 288.146 215.667 288.813 215.32C289.48 214.973 290.233 214.8 291.073 214.8C292.033 214.8 292.906 215.04 293.693 215.52C294.493 215.987 295.12 216.647 295.573 217.5C296.026 218.353 296.253 219.333 296.253 220.44C296.253 221.547 296.026 222.54 295.573 223.42C295.12 224.287 294.493 224.967 293.693 225.46C292.906 225.94 292.033 226.18 291.073 226.18C290.233 226.18 289.486 226.013 288.833 225.68C288.18 225.333 287.646 224.907 287.233 224.4V231.24H284.953V214.98H287.233V216.6ZM293.933 220.44C293.933 219.68 293.773 219.027 293.453 218.48C293.146 217.92 292.733 217.5 292.213 217.22C291.706 216.927 291.16 216.78 290.573 216.78C290 216.78 289.453 216.927 288.933 217.22C288.426 217.513 288.013 217.94 287.693 218.5C287.386 219.06 287.233 219.72 287.233 220.48C287.233 221.24 287.386 221.907 287.693 222.48C288.013 223.04 288.426 223.467 288.933 223.76C289.453 224.053 290 224.2 290.573 224.2C291.16 224.2 291.706 224.053 292.213 223.76C292.733 223.453 293.146 223.013 293.453 222.44C293.773 221.867 293.933 221.2 293.933 220.44ZM308.488 214.98V226H306.208V224.7C305.848 225.153 305.374 225.513 304.788 225.78C304.214 226.033 303.601 226.16 302.948 226.16C302.081 226.16 301.301 225.98 300.608 225.62C299.928 225.26 299.388 224.727 298.988 224.02C298.601 223.313 298.408 222.46 298.408 221.46V214.98H300.668V221.12C300.668 222.107 300.914 222.867 301.408 223.4C301.901 223.92 302.574 224.18 303.428 224.18C304.281 224.18 304.954 223.92 305.448 223.4C305.954 222.867 306.208 222.107 306.208 221.12V214.98H308.488ZM313.776 211.2V226H311.496V211.2H313.776ZM316.01 220.44C316.01 219.333 316.236 218.353 316.69 217.5C317.156 216.647 317.783 215.987 318.57 215.52C319.37 215.04 320.25 214.8 321.21 214.8C322.076 214.8 322.83 214.973 323.47 215.32C324.123 215.653 324.643 216.073 325.03 216.58V214.98H327.33V226H325.03V224.36C324.643 224.88 324.116 225.313 323.45 225.66C322.783 226.007 322.023 226.18 321.17 226.18C320.223 226.18 319.356 225.94 318.57 225.46C317.783 224.967 317.156 224.287 316.69 223.42C316.236 222.54 316.01 221.547 316.01 220.44ZM325.03 220.48C325.03 219.72 324.87 219.06 324.55 218.5C324.243 217.94 323.836 217.513 323.33 217.22C322.823 216.927 322.276 216.78 321.69 216.78C321.103 216.78 320.556 216.927 320.05 217.22C319.543 217.5 319.13 217.92 318.81 218.48C318.503 219.027 318.35 219.68 318.35 220.44C318.35 221.2 318.503 221.867 318.81 222.44C319.13 223.013 319.543 223.453 320.05 223.76C320.57 224.053 321.116 224.2 321.69 224.2C322.276 224.2 322.823 224.053 323.33 223.76C323.836 223.467 324.243 223.04 324.55 222.48C324.87 221.907 325.03 221.24 325.03 220.48ZM334.964 224.26C336.284 224.26 337.158 223.68 337.584 222.52H340.044C339.751 223.533 339.224 224.367 338.464 225.02C337.718 225.66 336.778 226.033 335.644 226.14V226.96C336.418 226.96 337.044 227.14 337.524 227.5C338.004 227.873 338.244 228.393 338.244 229.06C338.244 229.727 338.004 230.253 337.524 230.64C337.044 231.04 336.438 231.24 335.704 231.24H333.064V229.8H335.244C335.618 229.8 335.898 229.747 336.084 229.64C336.271 229.533 336.364 229.34 336.364 229.06C336.364 228.78 336.271 228.587 336.084 228.48C335.898 228.373 335.618 228.32 335.244 228.32H334.144V226.12C333.238 226.013 332.438 225.713 331.744 225.22C331.051 224.713 330.511 224.06 330.124 223.26C329.751 222.447 329.564 221.52 329.564 220.48C329.564 219.347 329.791 218.353 330.244 217.5C330.711 216.633 331.351 215.967 332.164 215.5C332.978 215.033 333.911 214.8 334.964 214.8C336.298 214.8 337.398 215.12 338.264 215.76C339.144 216.387 339.738 217.287 340.044 218.46H337.584C337.384 217.913 337.064 217.487 336.624 217.18C336.184 216.873 335.631 216.72 334.964 216.72C334.031 216.72 333.284 217.053 332.724 217.72C332.178 218.373 331.904 219.293 331.904 220.48C331.904 221.667 332.178 222.593 332.724 223.26C333.284 223.927 334.031 224.26 334.964 224.26ZM341.556 220.44C341.556 219.333 341.783 218.353 342.236 217.5C342.703 216.647 343.33 215.987 344.116 215.52C344.916 215.04 345.796 214.8 346.756 214.8C347.623 214.8 348.376 214.973 349.016 215.32C349.67 215.653 350.19 216.073 350.576 216.58V214.98H352.876V226H350.576V224.36C350.19 224.88 349.663 225.313 348.996 225.66C348.33 226.007 347.57 226.18 346.716 226.18C345.77 226.18 344.903 225.94 344.116 225.46C343.33 224.967 342.703 224.287 342.236 223.42C341.783 222.54 341.556 221.547 341.556 220.44ZM350.576 220.48C350.576 219.72 350.416 219.06 350.096 218.5C349.79 217.94 349.383 217.513 348.876 217.22C348.37 216.927 347.823 216.78 347.236 216.78C346.65 216.78 346.103 216.927 345.596 217.22C345.09 217.5 344.676 217.92 344.356 218.48C344.05 219.027 343.896 219.68 343.896 220.44C343.896 221.2 344.05 221.867 344.356 222.44C344.676 223.013 345.09 223.453 345.596 223.76C346.116 224.053 346.663 224.2 347.236 224.2C347.823 224.2 348.37 224.053 348.876 223.76C349.383 223.467 349.79 223.04 350.096 222.48C350.416 221.907 350.576 221.24 350.576 220.48ZM344.336 213.84C344.443 213.067 344.696 212.487 345.096 212.1C345.496 211.7 345.996 211.5 346.596 211.5C346.85 211.5 347.07 211.54 347.256 211.62C347.443 211.7 347.67 211.82 347.936 211.98C348.136 212.113 348.303 212.213 348.436 212.28C348.583 212.347 348.743 212.38 348.916 212.38C349.143 212.38 349.33 212.313 349.476 212.18C349.636 212.033 349.736 211.82 349.776 211.54H351.056C350.95 212.313 350.696 212.9 350.296 213.3C349.896 213.687 349.396 213.88 348.796 213.88C348.543 213.88 348.316 213.84 348.116 213.76C347.916 213.667 347.696 213.54 347.456 213.38C347.216 213.233 347.03 213.133 346.896 213.08C346.776 213.013 346.636 212.98 346.476 212.98C346.25 212.98 346.056 213.053 345.896 213.2C345.75 213.347 345.656 213.56 345.616 213.84H344.336ZM360.651 226.18C359.611 226.18 358.671 225.947 357.831 225.48C356.991 225 356.331 224.333 355.851 223.48C355.371 222.613 355.131 221.613 355.131 220.48C355.131 219.36 355.378 218.367 355.871 217.5C356.364 216.633 357.038 215.967 357.891 215.5C358.744 215.033 359.698 214.8 360.751 214.8C361.804 214.8 362.758 215.033 363.611 215.5C364.464 215.967 365.138 216.633 365.631 217.5C366.124 218.367 366.371 219.36 366.371 220.48C366.371 221.6 366.118 222.593 365.611 223.46C365.104 224.327 364.411 225 363.531 225.48C362.664 225.947 361.704 226.18 360.651 226.18ZM360.651 224.2C361.238 224.2 361.784 224.06 362.291 223.78C362.811 223.5 363.231 223.08 363.551 222.52C363.871 221.96 364.031 221.28 364.031 220.48C364.031 219.68 363.878 219.007 363.571 218.46C363.264 217.9 362.858 217.48 362.351 217.2C361.844 216.92 361.298 216.78 360.711 216.78C360.124 216.78 359.578 216.92 359.071 217.2C358.578 217.48 358.184 217.9 357.891 218.46C357.598 219.007 357.451 219.68 357.451 220.48C357.451 221.667 357.751 222.587 358.351 223.24C358.964 223.88 359.731 224.2 360.651 224.2Z" fill="white"/>
<path d="M438.78 237.94V242.02H443.58V243.88H438.78V248.14H444.18V250H436.5V236.08H444.18V237.94H438.78ZM451.708 244.42L455.268 250H452.688L450.308 246.26L448.068 250H445.688L449.248 244.58L445.688 238.98H448.268L450.648 242.72L452.888 238.98H455.268L451.708 244.42ZM459.249 240.6C459.635 240.093 460.162 239.667 460.829 239.32C461.495 238.973 462.249 238.8 463.089 238.8C464.049 238.8 464.922 239.04 465.709 239.52C466.509 239.987 467.135 240.647 467.589 241.5C468.042 242.353 468.269 243.333 468.269 244.44C468.269 245.547 468.042 246.54 467.589 247.42C467.135 248.287 466.509 248.967 465.709 249.46C464.922 249.94 464.049 250.18 463.089 250.18C462.249 250.18 461.502 250.013 460.849 249.68C460.195 249.333 459.662 248.907 459.249 248.4V255.24H456.969V238.98H459.249V240.6ZM465.949 244.44C465.949 243.68 465.789 243.027 465.469 242.48C465.162 241.92 464.749 241.5 464.229 241.22C463.722 240.927 463.175 240.78 462.589 240.78C462.015 240.78 461.469 240.927 460.949 241.22C460.442 241.513 460.029 241.94 459.709 242.5C459.402 243.06 459.249 243.72 459.249 244.48C459.249 245.24 459.402 245.907 459.709 246.48C460.029 247.04 460.442 247.467 460.949 247.76C461.469 248.053 462.015 248.2 462.589 248.2C463.175 248.2 463.722 248.053 464.229 247.76C464.749 247.453 465.162 247.013 465.469 246.44C465.789 245.867 465.949 245.2 465.949 244.44ZM480.623 244.22C480.623 244.633 480.597 245.007 480.543 245.34H472.123C472.19 246.22 472.517 246.927 473.103 247.46C473.69 247.993 474.41 248.26 475.263 248.26C476.49 248.26 477.357 247.747 477.863 246.72H480.323C479.99 247.733 479.383 248.567 478.503 249.22C477.637 249.86 476.557 250.18 475.263 250.18C474.21 250.18 473.263 249.947 472.423 249.48C471.597 249 470.943 248.333 470.463 247.48C469.997 246.613 469.763 245.613 469.763 244.48C469.763 243.347 469.99 242.353 470.443 241.5C470.91 240.633 471.557 239.967 472.383 239.5C473.223 239.033 474.183 238.8 475.263 238.8C476.303 238.8 477.23 239.027 478.043 239.48C478.857 239.933 479.49 240.573 479.943 241.4C480.397 242.213 480.623 243.153 480.623 244.22ZM478.243 243.5C478.23 242.66 477.93 241.987 477.343 241.48C476.757 240.973 476.03 240.72 475.163 240.72C474.377 240.72 473.703 240.973 473.143 241.48C472.583 241.973 472.25 242.647 472.143 243.5H478.243ZM485.147 240.58C485.481 240.02 485.921 239.587 486.467 239.28C487.027 238.96 487.687 238.8 488.447 238.8V241.16H487.867C486.974 241.16 486.294 241.387 485.827 241.84C485.374 242.293 485.147 243.08 485.147 244.2V250H482.867V238.98H485.147V240.58ZM491.703 237.52C491.29 237.52 490.943 237.38 490.663 237.1C490.383 236.82 490.243 236.473 490.243 236.06C490.243 235.647 490.383 235.3 490.663 235.02C490.943 234.74 491.29 234.6 491.703 234.6C492.103 234.6 492.443 234.74 492.723 235.02C493.003 235.3 493.143 235.647 493.143 236.06C493.143 236.473 493.003 236.82 492.723 237.1C492.443 237.38 492.103 237.52 491.703 237.52ZM492.823 238.98V250H490.543V238.98H492.823ZM505.916 244.22C505.916 244.633 505.89 245.007 505.836 245.34H497.416C497.483 246.22 497.81 246.927 498.396 247.46C498.983 247.993 499.703 248.26 500.556 248.26C501.783 248.26 502.65 247.747 503.156 246.72H505.616C505.283 247.733 504.676 248.567 503.796 249.22C502.93 249.86 501.85 250.18 500.556 250.18C499.503 250.18 498.556 249.947 497.716 249.48C496.89 249 496.236 248.333 495.756 247.48C495.29 246.613 495.056 245.613 495.056 244.48C495.056 243.347 495.283 242.353 495.736 241.5C496.203 240.633 496.85 239.967 497.676 239.5C498.516 239.033 499.476 238.8 500.556 238.8C501.596 238.8 502.523 239.027 503.336 239.48C504.15 239.933 504.783 240.573 505.236 241.4C505.69 242.213 505.916 243.153 505.916 244.22ZM503.536 243.5C503.523 242.66 503.223 241.987 502.636 241.48C502.05 240.973 501.323 240.72 500.456 240.72C499.67 240.72 498.996 240.973 498.436 241.48C497.876 241.973 497.543 242.647 497.436 243.5H503.536ZM500.496 236.48L497.636 238.2V236.42L500.496 234.76L503.356 236.42V238.2L500.496 236.48ZM513.72 238.8C514.587 238.8 515.36 238.98 516.04 239.34C516.733 239.7 517.273 240.233 517.66 240.94C518.047 241.647 518.24 242.5 518.24 243.5V250H515.98V243.84C515.98 242.853 515.733 242.1 515.24 241.58C514.747 241.047 514.073 240.78 513.22 240.78C512.367 240.78 511.687 241.047 511.18 241.58C510.687 242.1 510.44 242.853 510.44 243.84V250H508.16V238.98H510.44V240.24C510.813 239.787 511.287 239.433 511.86 239.18C512.447 238.927 513.067 238.8 513.72 238.8ZM520.388 244.48C520.388 243.347 520.615 242.353 521.068 241.5C521.535 240.633 522.175 239.967 522.988 239.5C523.802 239.033 524.735 238.8 525.788 238.8C527.122 238.8 528.222 239.12 529.088 239.76C529.968 240.387 530.562 241.287 530.868 242.46H528.408C528.208 241.913 527.888 241.487 527.448 241.18C527.008 240.873 526.455 240.72 525.788 240.72C524.855 240.72 524.108 241.053 523.548 241.72C523.002 242.373 522.728 243.293 522.728 244.48C522.728 245.667 523.002 246.593 523.548 247.26C524.108 247.927 524.855 248.26 525.788 248.26C527.108 248.26 527.982 247.68 528.408 246.52H530.868C530.548 247.64 529.948 248.533 529.068 249.2C528.188 249.853 527.095 250.18 525.788 250.18C524.735 250.18 523.802 249.947 522.988 249.48C522.175 249 521.535 248.333 521.068 247.48C520.615 246.613 520.388 245.613 520.388 244.48ZM534.301 237.52C533.887 237.52 533.541 237.38 533.261 237.1C532.981 236.82 532.841 236.473 532.841 236.06C532.841 235.647 532.981 235.3 533.261 235.02C533.541 234.74 533.887 234.6 534.301 234.6C534.701 234.6 535.041 234.74 535.321 235.02C535.601 235.3 535.741 235.647 535.741 236.06C535.741 236.473 535.601 236.82 535.321 237.1C535.041 237.38 534.701 237.52 534.301 237.52ZM535.421 238.98V250H533.141V238.98H535.421ZM537.654 244.44C537.654 243.333 537.881 242.353 538.334 241.5C538.801 240.647 539.427 239.987 540.214 239.52C541.014 239.04 541.894 238.8 542.854 238.8C543.721 238.8 544.474 238.973 545.114 239.32C545.767 239.653 546.287 240.073 546.674 240.58V238.98H548.974V250H546.674V248.36C546.287 248.88 545.761 249.313 545.094 249.66C544.427 250.007 543.667 250.18 542.814 250.18C541.867 250.18 541.001 249.94 540.214 249.46C539.427 248.967 538.801 248.287 538.334 247.42C537.881 246.54 537.654 245.547 537.654 244.44ZM546.674 244.48C546.674 243.72 546.514 243.06 546.194 242.5C545.887 241.94 545.481 241.513 544.974 241.22C544.467 240.927 543.921 240.78 543.334 240.78C542.747 240.78 542.201 240.927 541.694 241.22C541.187 241.5 540.774 241.92 540.454 242.48C540.147 243.027 539.994 243.68 539.994 244.44C539.994 245.2 540.147 245.867 540.454 246.44C540.774 247.013 541.187 247.453 541.694 247.76C542.214 248.053 542.761 248.2 543.334 248.2C543.921 248.2 544.467 248.053 544.974 247.76C545.481 247.467 545.887 247.04 546.194 246.48C546.514 245.907 546.674 245.24 546.674 244.48ZM567.264 244.22C567.264 244.633 567.237 245.007 567.184 245.34H558.764C558.831 246.22 559.157 246.927 559.744 247.46C560.331 247.993 561.051 248.26 561.904 248.26C563.131 248.26 563.997 247.747 564.504 246.72H566.964C566.631 247.733 566.024 248.567 565.144 249.22C564.277 249.86 563.197 250.18 561.904 250.18C560.851 250.18 559.904 249.947 559.064 249.48C558.237 249 557.584 248.333 557.104 247.48C556.637 246.613 556.404 245.613 556.404 244.48C556.404 243.347 556.631 242.353 557.084 241.5C557.551 240.633 558.197 239.967 559.024 239.5C559.864 239.033 560.824 238.8 561.904 238.8C562.944 238.8 563.871 239.027 564.684 239.48C565.497 239.933 566.131 240.573 566.584 241.4C567.037 242.213 567.264 243.153 567.264 244.22ZM564.884 243.5C564.871 242.66 564.571 241.987 563.984 241.48C563.397 240.973 562.671 240.72 561.804 240.72C561.017 240.72 560.344 240.973 559.784 241.48C559.224 241.973 558.891 242.647 558.784 243.5H564.884ZM435.74 274.48C435.74 273.347 435.967 272.353 436.42 271.5C436.887 270.633 437.527 269.967 438.34 269.5C439.153 269.033 440.087 268.8 441.14 268.8C442.473 268.8 443.573 269.12 444.44 269.76C445.32 270.387 445.913 271.287 446.22 272.46H443.76C443.56 271.913 443.24 271.487 442.8 271.18C442.36 270.873 441.807 270.72 441.14 270.72C440.207 270.72 439.46 271.053 438.9 271.72C438.353 272.373 438.08 273.293 438.08 274.48C438.08 275.667 438.353 276.593 438.9 277.26C439.46 277.927 440.207 278.26 441.14 278.26C442.46 278.26 443.333 277.68 443.76 276.52H446.22C445.9 277.64 445.3 278.533 444.42 279.2C443.54 279.853 442.447 280.18 441.14 280.18C440.087 280.18 439.153 279.947 438.34 279.48C437.527 279 436.887 278.333 436.42 277.48C435.967 276.613 435.74 275.613 435.74 274.48ZM450.772 270.58C451.106 270.02 451.546 269.587 452.092 269.28C452.652 268.96 453.312 268.8 454.072 268.8V271.16H453.492C452.599 271.16 451.919 271.387 451.452 271.84C450.999 272.293 450.772 273.08 450.772 274.2V280H448.492V268.98H450.772V270.58ZM466.268 274.22C466.268 274.633 466.241 275.007 466.188 275.34H457.768C457.835 276.22 458.161 276.927 458.748 277.46C459.335 277.993 460.055 278.26 460.908 278.26C462.135 278.26 463.001 277.747 463.508 276.72H465.968C465.635 277.733 465.028 278.567 464.148 279.22C463.281 279.86 462.201 280.18 460.908 280.18C459.855 280.18 458.908 279.947 458.068 279.48C457.241 279 456.588 278.333 456.108 277.48C455.641 276.613 455.408 275.613 455.408 274.48C455.408 273.347 455.635 272.353 456.088 271.5C456.555 270.633 457.201 269.967 458.028 269.5C458.868 269.033 459.828 268.8 460.908 268.8C461.948 268.8 462.875 269.027 463.688 269.48C464.501 269.933 465.135 270.573 465.588 271.4C466.041 272.213 466.268 273.153 466.268 274.22ZM463.888 273.5C463.875 272.66 463.575 271.987 462.988 271.48C462.401 270.973 461.675 270.72 460.808 270.72C460.021 270.72 459.348 270.973 458.788 271.48C458.228 271.973 457.895 272.647 457.788 273.5H463.888ZM467.752 274.44C467.752 273.333 467.978 272.353 468.432 271.5C468.898 270.647 469.525 269.987 470.312 269.52C471.112 269.04 471.998 268.8 472.972 268.8C473.692 268.8 474.398 268.96 475.092 269.28C475.798 269.587 476.358 270 476.772 270.52V265.2H479.072V280H476.772V278.34C476.398 278.873 475.878 279.313 475.212 279.66C474.558 280.007 473.805 280.18 472.952 280.18C471.992 280.18 471.112 279.94 470.312 279.46C469.525 278.967 468.898 278.287 468.432 277.42C467.978 276.54 467.752 275.547 467.752 274.44ZM476.772 274.48C476.772 273.72 476.612 273.06 476.292 272.5C475.985 271.94 475.578 271.513 475.072 271.22C474.565 270.927 474.018 270.78 473.432 270.78C472.845 270.78 472.298 270.927 471.792 271.22C471.285 271.5 470.872 271.92 470.552 272.48C470.245 273.027 470.092 273.68 470.092 274.44C470.092 275.2 470.245 275.867 470.552 276.44C470.872 277.013 471.285 277.453 471.792 277.76C472.312 278.053 472.858 278.2 473.432 278.2C474.018 278.2 474.565 278.053 475.072 277.76C475.578 277.467 475.985 277.04 476.292 276.48C476.612 275.907 476.772 275.24 476.772 274.48ZM483.226 267.52C482.813 267.52 482.466 267.38 482.186 267.1C481.906 266.82 481.766 266.473 481.766 266.06C481.766 265.647 481.906 265.3 482.186 265.02C482.466 264.74 482.813 264.6 483.226 264.6C483.626 264.6 483.966 264.74 484.246 265.02C484.526 265.3 484.666 265.647 484.666 266.06C484.666 266.473 484.526 266.82 484.246 267.1C483.966 267.38 483.626 267.52 483.226 267.52ZM484.346 268.98V280H482.066V268.98H484.346ZM489.62 270.62C490.007 270.087 490.533 269.653 491.2 269.32C491.88 268.973 492.633 268.8 493.46 268.8C494.433 268.8 495.313 269.033 496.1 269.5C496.887 269.967 497.507 270.633 497.96 271.5C498.413 272.353 498.64 273.333 498.64 274.44C498.64 275.547 498.413 276.54 497.96 277.42C497.507 278.287 496.88 278.967 496.08 279.46C495.293 279.94 494.42 280.18 493.46 280.18C492.607 280.18 491.847 280.013 491.18 279.68C490.527 279.347 490.007 278.92 489.62 278.4V280H487.34V265.2H489.62V270.62ZM496.32 274.44C496.32 273.68 496.16 273.027 495.84 272.48C495.533 271.92 495.12 271.5 494.6 271.22C494.093 270.927 493.547 270.78 492.96 270.78C492.387 270.78 491.84 270.927 491.32 271.22C490.813 271.513 490.4 271.94 490.08 272.5C489.773 273.06 489.62 273.72 489.62 274.48C489.62 275.24 489.773 275.907 490.08 276.48C490.4 277.04 490.813 277.467 491.32 277.76C491.84 278.053 492.387 278.2 492.96 278.2C493.547 278.2 494.093 278.053 494.6 277.76C495.12 277.453 495.533 277.013 495.84 276.44C496.16 275.867 496.32 275.2 496.32 274.44ZM502.055 267.52C501.641 267.52 501.295 267.38 501.015 267.1C500.735 266.82 500.595 266.473 500.595 266.06C500.595 265.647 500.735 265.3 501.015 265.02C501.295 264.74 501.641 264.6 502.055 264.6C502.455 264.6 502.795 264.74 503.075 265.02C503.355 265.3 503.495 265.647 503.495 266.06C503.495 266.473 503.355 266.82 503.075 267.1C502.795 267.38 502.455 267.52 502.055 267.52ZM503.175 268.98V280H500.895V268.98H503.175ZM508.448 265.2V280H506.168V265.2H508.448ZM512.601 267.52C512.188 267.52 511.841 267.38 511.561 267.1C511.281 266.82 511.141 266.473 511.141 266.06C511.141 265.647 511.281 265.3 511.561 265.02C511.841 264.74 512.188 264.6 512.601 264.6C513.001 264.6 513.341 264.74 513.621 265.02C513.901 265.3 514.041 265.647 514.041 266.06C514.041 266.473 513.901 266.82 513.621 267.1C513.341 267.38 513.001 267.52 512.601 267.52ZM513.721 268.98V280H511.441V268.98H513.721ZM515.955 274.44C515.955 273.333 516.182 272.353 516.635 271.5C517.102 270.647 517.728 269.987 518.515 269.52C519.315 269.04 520.202 268.8 521.175 268.8C521.895 268.8 522.602 268.96 523.295 269.28C524.002 269.587 524.562 270 524.975 270.52V265.2H527.275V280H524.975V278.34C524.602 278.873 524.082 279.313 523.415 279.66C522.762 280.007 522.008 280.18 521.155 280.18C520.195 280.18 519.315 279.94 518.515 279.46C517.728 278.967 517.102 278.287 516.635 277.42C516.182 276.54 515.955 275.547 515.955 274.44ZM524.975 274.48C524.975 273.72 524.815 273.06 524.495 272.5C524.188 271.94 523.782 271.513 523.275 271.22C522.768 270.927 522.222 270.78 521.635 270.78C521.048 270.78 520.502 270.927 519.995 271.22C519.488 271.5 519.075 271.92 518.755 272.48C518.448 273.027 518.295 273.68 518.295 274.44C518.295 275.2 518.448 275.867 518.755 276.44C519.075 277.013 519.488 277.453 519.995 277.76C520.515 278.053 521.062 278.2 521.635 278.2C522.222 278.2 522.768 278.053 523.275 277.76C523.782 277.467 524.188 277.04 524.495 276.48C524.815 275.907 524.975 275.24 524.975 274.48ZM529.51 274.44C529.51 273.333 529.736 272.353 530.19 271.5C530.656 270.647 531.283 269.987 532.07 269.52C532.87 269.04 533.75 268.8 534.71 268.8C535.576 268.8 536.33 268.973 536.97 269.32C537.623 269.653 538.143 270.073 538.53 270.58V268.98H540.83V280H538.53V278.36C538.143 278.88 537.616 279.313 536.95 279.66C536.283 280.007 535.523 280.18 534.67 280.18C533.723 280.18 532.856 279.94 532.07 279.46C531.283 278.967 530.656 278.287 530.19 277.42C529.736 276.54 529.51 275.547 529.51 274.44ZM538.53 274.48C538.53 273.72 538.37 273.06 538.05 272.5C537.743 271.94 537.336 271.513 536.83 271.22C536.323 270.927 535.776 270.78 535.19 270.78C534.603 270.78 534.056 270.927 533.55 271.22C533.043 271.5 532.63 271.92 532.31 272.48C532.003 273.027 531.85 273.68 531.85 274.44C531.85 275.2 532.003 275.867 532.31 276.44C532.63 277.013 533.043 277.453 533.55 277.76C534.07 278.053 534.616 278.2 535.19 278.2C535.776 278.2 536.323 278.053 536.83 277.76C537.336 277.467 537.743 277.04 538.05 276.48C538.37 275.907 538.53 275.24 538.53 274.48ZM543.064 274.44C543.064 273.333 543.291 272.353 543.744 271.5C544.211 270.647 544.838 269.987 545.624 269.52C546.424 269.04 547.311 268.8 548.284 268.8C549.004 268.8 549.711 268.96 550.404 269.28C551.111 269.587 551.671 270 552.084 270.52V265.2H554.384V280H552.084V278.34C551.711 278.873 551.191 279.313 550.524 279.66C549.871 280.007 549.118 280.18 548.264 280.18C547.304 280.18 546.424 279.94 545.624 279.46C544.838 278.967 544.211 278.287 543.744 277.42C543.291 276.54 543.064 275.547 543.064 274.44ZM552.084 274.48C552.084 273.72 551.924 273.06 551.604 272.5C551.298 271.94 550.891 271.513 550.384 271.22C549.878 270.927 549.331 270.78 548.744 270.78C548.158 270.78 547.611 270.927 547.104 271.22C546.598 271.5 546.184 271.92 545.864 272.48C545.558 273.027 545.404 273.68 545.404 274.44C545.404 275.2 545.558 275.867 545.864 276.44C546.184 277.013 546.598 277.453 547.104 277.76C547.624 278.053 548.171 278.2 548.744 278.2C549.331 278.2 549.878 278.053 550.384 277.76C550.891 277.467 551.298 277.04 551.604 276.48C551.924 275.907 552.084 275.24 552.084 274.48ZM567.479 274.22C567.479 274.633 567.452 275.007 567.399 275.34H558.979C559.046 276.22 559.372 276.927 559.959 277.46C560.546 277.993 561.266 278.26 562.119 278.26C563.346 278.26 564.212 277.747 564.719 276.72H567.179C566.846 277.733 566.239 278.567 565.359 279.22C564.492 279.86 563.412 280.18 562.119 280.18C561.066 280.18 560.119 279.947 559.279 279.48C558.452 279 557.799 278.333 557.319 277.48C556.852 276.613 556.619 275.613 556.619 274.48C556.619 273.347 556.846 272.353 557.299 271.5C557.766 270.633 558.412 269.967 559.239 269.5C560.079 269.033 561.039 268.8 562.119 268.8C563.159 268.8 564.086 269.027 564.899 269.48C565.712 269.933 566.346 270.573 566.799 271.4C567.252 272.213 567.479 273.153 567.479 274.22ZM565.099 273.5C565.086 272.66 564.786 271.987 564.199 271.48C563.612 270.973 562.886 270.72 562.019 270.72C561.232 270.72 560.559 270.973 559.999 271.48C559.439 271.973 559.106 272.647 558.999 273.5H565.099Z" fill="white"/>
<path d="M36.78 275.94V280.02H41.58V281.88H36.78V286.14H42.18V288H34.5V274.08H42.18V275.94H36.78ZM49.7083 282.42L53.2683 288H50.6883L48.3083 284.26L46.0683 288H43.6883L47.2483 282.58L43.6883 276.98H46.2683L48.6483 280.72L50.8883 276.98H53.2683L49.7083 282.42ZM57.2488 278.6C57.6354 278.093 58.1621 277.667 58.8288 277.32C59.4954 276.973 60.2488 276.8 61.0888 276.8C62.0488 276.8 62.9221 277.04 63.7088 277.52C64.5088 277.987 65.1354 278.647 65.5888 279.5C66.0421 280.353 66.2688 281.333 66.2688 282.44C66.2688 283.547 66.0421 284.54 65.5888 285.42C65.1354 286.287 64.5088 286.967 63.7088 287.46C62.9221 287.94 62.0488 288.18 61.0888 288.18C60.2488 288.18 59.5021 288.013 58.8488 287.68C58.1954 287.333 57.6621 286.907 57.2488 286.4V293.24H54.9688V276.98H57.2488V278.6ZM63.9488 282.44C63.9488 281.68 63.7888 281.027 63.4688 280.48C63.1621 279.92 62.7488 279.5 62.2288 279.22C61.7221 278.927 61.1754 278.78 60.5888 278.78C60.0154 278.78 59.4688 278.927 58.9488 279.22C58.4421 279.513 58.0288 279.94 57.7088 280.5C57.4021 281.06 57.2488 281.72 57.2488 282.48C57.2488 283.24 57.4021 283.907 57.7088 284.48C58.0288 285.04 58.4421 285.467 58.9488 285.76C59.4688 286.053 60.0154 286.2 60.5888 286.2C61.1754 286.2 61.7221 286.053 62.2288 285.76C62.7488 285.453 63.1621 285.013 63.4688 284.44C63.7888 283.867 63.9488 283.2 63.9488 282.44ZM78.6234 282.22C78.6234 282.633 78.5968 283.007 78.5434 283.34H70.1234C70.1901 284.22 70.5168 284.927 71.1034 285.46C71.6901 285.993 72.4101 286.26 73.2634 286.26C74.4901 286.26 75.3568 285.747 75.8634 284.72H78.3234C77.9901 285.733 77.3834 286.567 76.5034 287.22C75.6368 287.86 74.5568 288.18 73.2634 288.18C72.2101 288.18 71.2634 287.947 70.4234 287.48C69.5968 287 68.9434 286.333 68.4634 285.48C67.9968 284.613 67.7634 283.613 67.7634 282.48C67.7634 281.347 67.9901 280.353 68.4434 279.5C68.9101 278.633 69.5568 277.967 70.3834 277.5C71.2234 277.033 72.1834 276.8 73.2634 276.8C74.3034 276.8 75.2301 277.027 76.0434 277.48C76.8568 277.933 77.4901 278.573 77.9434 279.4C78.3968 280.213 78.6234 281.153 78.6234 282.22ZM76.2434 281.5C76.2301 280.66 75.9301 279.987 75.3434 279.48C74.7568 278.973 74.0301 278.72 73.1634 278.72C72.3768 278.72 71.7034 278.973 71.1434 279.48C70.5834 279.973 70.2501 280.647 70.1434 281.5H76.2434ZM83.1472 278.58C83.4805 278.02 83.9205 277.587 84.4672 277.28C85.0272 276.96 85.6872 276.8 86.4472 276.8V279.16H85.8672C84.9739 279.16 84.2939 279.387 83.8272 279.84C83.3739 280.293 83.1472 281.08 83.1472 282.2V288H80.8672V276.98H83.1472V278.58ZM89.703 275.52C89.2896 275.52 88.943 275.38 88.663 275.1C88.383 274.82 88.243 274.473 88.243 274.06C88.243 273.647 88.383 273.3 88.663 273.02C88.943 272.74 89.2896 272.6 89.703 272.6C90.103 272.6 90.443 272.74 90.723 273.02C91.003 273.3 91.143 273.647 91.143 274.06C91.143 274.473 91.003 274.82 90.723 275.1C90.443 275.38 90.103 275.52 89.703 275.52ZM90.823 276.98V288H88.543V276.98H90.823ZM103.916 282.22C103.916 282.633 103.89 283.007 103.836 283.34H95.4164C95.4831 284.22 95.8097 284.927 96.3964 285.46C96.9831 285.993 97.7031 286.26 98.5564 286.26C99.7831 286.26 100.65 285.747 101.156 284.72H103.616C103.283 285.733 102.676 286.567 101.796 287.22C100.93 287.86 99.8497 288.18 98.5564 288.18C97.5031 288.18 96.5564 287.947 95.7164 287.48C94.8897 287 94.2364 286.333 93.7564 285.48C93.2897 284.613 93.0564 283.613 93.0564 282.48C93.0564 281.347 93.2831 280.353 93.7364 279.5C94.2031 278.633 94.8497 277.967 95.6764 277.5C96.5164 277.033 97.4764 276.8 98.5564 276.8C99.5964 276.8 100.523 277.027 101.336 277.48C102.15 277.933 102.783 278.573 103.236 279.4C103.69 280.213 103.916 281.153 103.916 282.22ZM101.536 281.5C101.523 280.66 101.223 279.987 100.636 279.48C100.05 278.973 99.3231 278.72 98.4564 278.72C97.6697 278.72 96.9964 278.973 96.4364 279.48C95.8764 279.973 95.5431 280.647 95.4364 281.5H101.536ZM98.4964 274.48L95.6364 276.2V274.42L98.4964 272.76L101.356 274.42V276.2L98.4964 274.48ZM111.72 276.8C112.587 276.8 113.36 276.98 114.04 277.34C114.733 277.7 115.273 278.233 115.66 278.94C116.047 279.647 116.24 280.5 116.24 281.5V288H113.98V281.84C113.98 280.853 113.733 280.1 113.24 279.58C112.747 279.047 112.073 278.78 111.22 278.78C110.367 278.78 109.687 279.047 109.18 279.58C108.687 280.1 108.44 280.853 108.44 281.84V288H106.16V276.98H108.44V278.24C108.813 277.787 109.287 277.433 109.86 277.18C110.447 276.927 111.067 276.8 111.72 276.8ZM118.388 282.48C118.388 281.347 118.615 280.353 119.068 279.5C119.535 278.633 120.175 277.967 120.988 277.5C121.802 277.033 122.735 276.8 123.788 276.8C125.122 276.8 126.222 277.12 127.088 277.76C127.968 278.387 128.562 279.287 128.868 280.46H126.408C126.208 279.913 125.888 279.487 125.448 279.18C125.008 278.873 124.455 278.72 123.788 278.72C122.855 278.72 122.108 279.053 121.548 279.72C121.002 280.373 120.728 281.293 120.728 282.48C120.728 283.667 121.002 284.593 121.548 285.26C122.108 285.927 122.855 286.26 123.788 286.26C125.108 286.26 125.982 285.68 126.408 284.52H128.868C128.548 285.64 127.948 286.533 127.068 287.2C126.188 287.853 125.095 288.18 123.788 288.18C122.735 288.18 121.802 287.947 120.988 287.48C120.175 287 119.535 286.333 119.068 285.48C118.615 284.613 118.388 283.613 118.388 282.48ZM132.301 275.52C131.887 275.52 131.541 275.38 131.261 275.1C130.981 274.82 130.841 274.473 130.841 274.06C130.841 273.647 130.981 273.3 131.261 273.02C131.541 272.74 131.887 272.6 132.301 272.6C132.701 272.6 133.041 272.74 133.321 273.02C133.601 273.3 133.741 273.647 133.741 274.06C133.741 274.473 133.601 274.82 133.321 275.1C133.041 275.38 132.701 275.52 132.301 275.52ZM133.421 276.98V288H131.141V276.98H133.421ZM135.654 282.44C135.654 281.333 135.881 280.353 136.334 279.5C136.801 278.647 137.427 277.987 138.214 277.52C139.014 277.04 139.894 276.8 140.854 276.8C141.721 276.8 142.474 276.973 143.114 277.32C143.767 277.653 144.287 278.073 144.674 278.58V276.98H146.974V288H144.674V286.36C144.287 286.88 143.761 287.313 143.094 287.66C142.427 288.007 141.667 288.18 140.814 288.18C139.867 288.18 139.001 287.94 138.214 287.46C137.427 286.967 136.801 286.287 136.334 285.42C135.881 284.54 135.654 283.547 135.654 282.44ZM144.674 282.48C144.674 281.72 144.514 281.06 144.194 280.5C143.887 279.94 143.481 279.513 142.974 279.22C142.467 278.927 141.921 278.78 141.334 278.78C140.747 278.78 140.201 278.927 139.694 279.22C139.187 279.5 138.774 279.92 138.454 280.48C138.147 281.027 137.994 281.68 137.994 282.44C137.994 283.2 138.147 283.867 138.454 284.44C138.774 285.013 139.187 285.453 139.694 285.76C140.214 286.053 140.761 286.2 141.334 286.2C141.921 286.2 142.467 286.053 142.974 285.76C143.481 285.467 143.887 285.04 144.194 284.48C144.514 283.907 144.674 283.24 144.674 282.48ZM165.264 282.22C165.264 282.633 165.237 283.007 165.184 283.34H156.764C156.831 284.22 157.157 284.927 157.744 285.46C158.331 285.993 159.051 286.26 159.904 286.26C161.131 286.26 161.997 285.747 162.504 284.72H164.964C164.631 285.733 164.024 286.567 163.144 287.22C162.277 287.86 161.197 288.18 159.904 288.18C158.851 288.18 157.904 287.947 157.064 287.48C156.237 287 155.584 286.333 155.104 285.48C154.637 284.613 154.404 283.613 154.404 282.48C154.404 281.347 154.631 280.353 155.084 279.5C155.551 278.633 156.197 277.967 157.024 277.5C157.864 277.033 158.824 276.8 159.904 276.8C160.944 276.8 161.871 277.027 162.684 277.48C163.497 277.933 164.131 278.573 164.584 279.4C165.037 280.213 165.264 281.153 165.264 282.22ZM162.884 281.5C162.871 280.66 162.571 279.987 161.984 279.48C161.397 278.973 160.671 278.72 159.804 278.72C159.017 278.72 158.344 278.973 157.784 279.48C157.224 279.973 156.891 280.647 156.784 281.5H162.884ZM33.74 312.48C33.74 311.347 33.9667 310.353 34.42 309.5C34.8867 308.633 35.5267 307.967 36.34 307.5C37.1533 307.033 38.0867 306.8 39.14 306.8C40.4733 306.8 41.5733 307.12 42.44 307.76C43.32 308.387 43.9133 309.287 44.22 310.46H41.76C41.56 309.913 41.24 309.487 40.8 309.18C40.36 308.873 39.8067 308.72 39.14 308.72C38.2067 308.72 37.46 309.053 36.9 309.72C36.3533 310.373 36.08 311.293 36.08 312.48C36.08 313.667 36.3533 314.593 36.9 315.26C37.46 315.927 38.2067 316.26 39.14 316.26C40.46 316.26 41.3333 315.68 41.76 314.52H44.22C43.9 315.64 43.3 316.533 42.42 317.2C41.54 317.853 40.4467 318.18 39.14 318.18C38.0867 318.18 37.1533 317.947 36.34 317.48C35.5267 317 34.8867 316.333 34.42 315.48C33.9667 314.613 33.74 313.613 33.74 312.48ZM48.7722 308.58C49.1055 308.02 49.5455 307.587 50.0922 307.28C50.6522 306.96 51.3122 306.8 52.0722 306.8V309.16H51.4922C50.5989 309.16 49.9189 309.387 49.4522 309.84C48.9989 310.293 48.7722 311.08 48.7722 312.2V318H46.4922V306.98H48.7722V308.58ZM64.268 312.22C64.268 312.633 64.2413 313.007 64.188 313.34H55.768C55.8346 314.22 56.1613 314.927 56.748 315.46C57.3346 315.993 58.0546 316.26 58.908 316.26C60.1346 316.26 61.0013 315.747 61.508 314.72H63.968C63.6346 315.733 63.028 316.567 62.148 317.22C61.2813 317.86 60.2013 318.18 58.908 318.18C57.8546 318.18 56.908 317.947 56.068 317.48C55.2413 317 54.588 316.333 54.108 315.48C53.6413 314.613 53.408 313.613 53.408 312.48C53.408 311.347 53.6346 310.353 54.088 309.5C54.5546 308.633 55.2013 307.967 56.028 307.5C56.868 307.033 57.828 306.8 58.908 306.8C59.948 306.8 60.8746 307.027 61.688 307.48C62.5013 307.933 63.1346 308.573 63.588 309.4C64.0413 310.213 64.268 311.153 64.268 312.22ZM61.888 311.5C61.8746 310.66 61.5746 309.987 60.988 309.48C60.4013 308.973 59.6746 308.72 58.808 308.72C58.0213 308.72 57.348 308.973 56.788 309.48C56.228 309.973 55.8946 310.647 55.788 311.5H61.888ZM65.7517 312.44C65.7517 311.333 65.9784 310.353 66.4317 309.5C66.8984 308.647 67.5251 307.987 68.3117 307.52C69.1117 307.04 69.9984 306.8 70.9717 306.8C71.6917 306.8 72.3984 306.96 73.0917 307.28C73.7984 307.587 74.3584 308 74.7717 308.52V303.2H77.0717V318H74.7717V316.34C74.3984 316.873 73.8784 317.313 73.2117 317.66C72.5584 318.007 71.8051 318.18 70.9517 318.18C69.9917 318.18 69.1117 317.94 68.3117 317.46C67.5251 316.967 66.8984 316.287 66.4317 315.42C65.9784 314.54 65.7517 313.547 65.7517 312.44ZM74.7717 312.48C74.7717 311.72 74.6117 311.06 74.2917 310.5C73.9851 309.94 73.5784 309.513 73.0717 309.22C72.5651 308.927 72.0184 308.78 71.4317 308.78C70.8451 308.78 70.2984 308.927 69.7917 309.22C69.2851 309.5 68.8717 309.92 68.5517 310.48C68.2451 311.027 68.0917 311.68 68.0917 312.44C68.0917 313.2 68.2451 313.867 68.5517 314.44C68.8717 315.013 69.2851 315.453 69.7917 315.76C70.3117 316.053 70.8584 316.2 71.4317 316.2C72.0184 316.2 72.5651 316.053 73.0717 315.76C73.5784 315.467 73.9851 315.04 74.2917 314.48C74.6117 313.907 74.7717 313.24 74.7717 312.48ZM81.2264 305.52C80.8131 305.52 80.4664 305.38 80.1864 305.1C79.9064 304.82 79.7664 304.473 79.7664 304.06C79.7664 303.647 79.9064 303.3 80.1864 303.02C80.4664 302.74 80.8131 302.6 81.2264 302.6C81.6264 302.6 81.9664 302.74 82.2464 303.02C82.5264 303.3 82.6664 303.647 82.6664 304.06C82.6664 304.473 82.5264 304.82 82.2464 305.1C81.9664 305.38 81.6264 305.52 81.2264 305.52ZM82.3464 306.98V318H80.0664V306.98H82.3464ZM87.6198 308.62C88.0065 308.087 88.5332 307.653 89.1998 307.32C89.8798 306.973 90.6332 306.8 91.4598 306.8C92.4332 306.8 93.3132 307.033 94.0998 307.5C94.8865 307.967 95.5065 308.633 95.9598 309.5C96.4132 310.353 96.6398 311.333 96.6398 312.44C96.6398 313.547 96.4132 314.54 95.9598 315.42C95.5065 316.287 94.8798 316.967 94.0798 317.46C93.2932 317.94 92.4198 318.18 91.4598 318.18C90.6065 318.18 89.8465 318.013 89.1798 317.68C88.5265 317.347 88.0065 316.92 87.6198 316.4V318H85.3398V303.2H87.6198V308.62ZM94.3198 312.44C94.3198 311.68 94.1598 311.027 93.8398 310.48C93.5332 309.92 93.1198 309.5 92.5998 309.22C92.0932 308.927 91.5465 308.78 90.9598 308.78C90.3865 308.78 89.8398 308.927 89.3198 309.22C88.8132 309.513 88.3998 309.94 88.0798 310.5C87.7732 311.06 87.6198 311.72 87.6198 312.48C87.6198 313.24 87.7732 313.907 88.0798 314.48C88.3998 315.04 88.8132 315.467 89.3198 315.76C89.8398 316.053 90.3865 316.2 90.9598 316.2C91.5465 316.2 92.0932 316.053 92.5998 315.76C93.1198 315.453 93.5332 315.013 93.8398 314.44C94.1598 313.867 94.3198 313.2 94.3198 312.44ZM100.055 305.52C99.6412 305.52 99.2945 305.38 99.0145 305.1C98.7345 304.82 98.5945 304.473 98.5945 304.06C98.5945 303.647 98.7345 303.3 99.0145 303.02C99.2945 302.74 99.6412 302.6 100.055 302.6C100.455 302.6 100.795 302.74 101.075 303.02C101.355 303.3 101.495 303.647 101.495 304.06C101.495 304.473 101.355 304.82 101.075 305.1C100.795 305.38 100.455 305.52 100.055 305.52ZM101.175 306.98V318H98.8945V306.98H101.175ZM106.448 303.2V318H104.168V303.2H106.448ZM110.601 305.52C110.188 305.52 109.841 305.38 109.561 305.1C109.281 304.82 109.141 304.473 109.141 304.06C109.141 303.647 109.281 303.3 109.561 303.02C109.841 302.74 110.188 302.6 110.601 302.6C111.001 302.6 111.341 302.74 111.621 303.02C111.901 303.3 112.041 303.647 112.041 304.06C112.041 304.473 111.901 304.82 111.621 305.1C111.341 305.38 111.001 305.52 110.601 305.52ZM111.721 306.98V318H109.441V306.98H111.721ZM113.955 312.44C113.955 311.333 114.182 310.353 114.635 309.5C115.102 308.647 115.728 307.987 116.515 307.52C117.315 307.04 118.202 306.8 119.175 306.8C119.895 306.8 120.602 306.96 121.295 307.28C122.002 307.587 122.562 308 122.975 308.52V303.2H125.275V318H122.975V316.34C122.602 316.873 122.082 317.313 121.415 317.66C120.762 318.007 120.008 318.18 119.155 318.18C118.195 318.18 117.315 317.94 116.515 317.46C115.728 316.967 115.102 316.287 114.635 315.42C114.182 314.54 113.955 313.547 113.955 312.44ZM122.975 312.48C122.975 311.72 122.815 311.06 122.495 310.5C122.188 309.94 121.782 309.513 121.275 309.22C120.768 308.927 120.222 308.78 119.635 308.78C119.048 308.78 118.502 308.927 117.995 309.22C117.488 309.5 117.075 309.92 116.755 310.48C116.448 311.027 116.295 311.68 116.295 312.44C116.295 313.2 116.448 313.867 116.755 314.44C117.075 315.013 117.488 315.453 117.995 315.76C118.515 316.053 119.062 316.2 119.635 316.2C120.222 316.2 120.768 316.053 121.275 315.76C121.782 315.467 122.188 315.04 122.495 314.48C122.815 313.907 122.975 313.24 122.975 312.48ZM127.51 312.44C127.51 311.333 127.736 310.353 128.19 309.5C128.656 308.647 129.283 307.987 130.07 307.52C130.87 307.04 131.75 306.8 132.71 306.8C133.576 306.8 134.33 306.973 134.97 307.32C135.623 307.653 136.143 308.073 136.53 308.58V306.98H138.83V318H136.53V316.36C136.143 316.88 135.616 317.313 134.95 317.66C134.283 318.007 133.523 318.18 132.67 318.18C131.723 318.18 130.856 317.94 130.07 317.46C129.283 316.967 128.656 316.287 128.19 315.42C127.736 314.54 127.51 313.547 127.51 312.44ZM136.53 312.48C136.53 311.72 136.37 311.06 136.05 310.5C135.743 309.94 135.336 309.513 134.83 309.22C134.323 308.927 133.776 308.78 133.19 308.78C132.603 308.78 132.056 308.927 131.55 309.22C131.043 309.5 130.63 309.92 130.31 310.48C130.003 311.027 129.85 311.68 129.85 312.44C129.85 313.2 130.003 313.867 130.31 314.44C130.63 315.013 131.043 315.453 131.55 315.76C132.07 316.053 132.616 316.2 133.19 316.2C133.776 316.2 134.323 316.053 134.83 315.76C135.336 315.467 135.743 315.04 136.05 314.48C136.37 313.907 136.53 313.24 136.53 312.48ZM141.064 312.44C141.064 311.333 141.291 310.353 141.744 309.5C142.211 308.647 142.838 307.987 143.624 307.52C144.424 307.04 145.311 306.8 146.284 306.8C147.004 306.8 147.711 306.96 148.404 307.28C149.111 307.587 149.671 308 150.084 308.52V303.2H152.384V318H150.084V316.34C149.711 316.873 149.191 317.313 148.524 317.66C147.871 318.007 147.118 318.18 146.264 318.18C145.304 318.18 144.424 317.94 143.624 317.46C142.838 316.967 142.211 316.287 141.744 315.42C141.291 314.54 141.064 313.547 141.064 312.44ZM150.084 312.48C150.084 311.72 149.924 311.06 149.604 310.5C149.298 309.94 148.891 309.513 148.384 309.22C147.878 308.927 147.331 308.78 146.744 308.78C146.158 308.78 145.611 308.927 145.104 309.22C144.598 309.5 144.184 309.92 143.864 310.48C143.558 311.027 143.404 311.68 143.404 312.44C143.404 313.2 143.558 313.867 143.864 314.44C144.184 315.013 144.598 315.453 145.104 315.76C145.624 316.053 146.171 316.2 146.744 316.2C147.331 316.2 147.878 316.053 148.384 315.76C148.891 315.467 149.298 315.04 149.604 314.48C149.924 313.907 150.084 313.24 150.084 312.48ZM165.479 312.22C165.479 312.633 165.452 313.007 165.399 313.34H156.979C157.046 314.22 157.372 314.927 157.959 315.46C158.546 315.993 159.266 316.26 160.119 316.26C161.346 316.26 162.212 315.747 162.719 314.72H165.179C164.846 315.733 164.239 316.567 163.359 317.22C162.492 317.86 161.412 318.18 160.119 318.18C159.066 318.18 158.119 317.947 157.279 317.48C156.452 317 155.799 316.333 155.319 315.48C154.852 314.613 154.619 313.613 154.619 312.48C154.619 311.347 154.846 310.353 155.299 309.5C155.766 308.633 156.412 307.967 157.239 307.5C158.079 307.033 159.039 306.8 160.119 306.8C161.159 306.8 162.086 307.027 162.899 307.48C163.712 307.933 164.346 308.573 164.799 309.4C165.252 310.213 165.479 311.153 165.479 312.22ZM163.099 311.5C163.086 310.66 162.786 309.987 162.199 309.48C161.612 308.973 160.886 308.72 160.019 308.72C159.232 308.72 158.559 308.973 157.999 309.48C157.439 309.973 157.106 310.647 156.999 311.5H163.099Z" fill="white"/>
<path d="M221 448.5L188 396H221V448.5Z" fill="#062C24"/>
<path d="M388 448.5L421 396H388V448.5Z" fill="#062C24"/>
</svg>
