<svg width="31" height="31" viewBox="0 0 31 31" fill="none" xmlns="http://www.w3.org/2000/svg">
<path d="M17.0934 0C18.8371 0.00464989 19.7221 0.0139497 20.4862 0.0356491L20.7869 0.0464988C21.1341 0.0588985 21.4766 0.0743981 21.8904 0.0929977C23.5395 0.170496 24.6648 0.43089 25.6521 0.81373C26.675 1.20742 27.5368 1.74061 28.3985 2.60084C29.187 3.3754 29.7969 4.31273 30.1856 5.34737C30.5684 6.3347 30.8288 7.45997 30.9063 9.11068C30.9249 9.52297 30.9404 9.86551 30.9528 10.2143L30.9621 10.5149C30.9854 11.2775 30.9947 12.1626 30.9978 13.9063L30.9993 15.0625V17.093C31.0031 18.2235 30.9912 19.3541 30.9637 20.4843L30.9544 20.785C30.942 21.1337 30.9265 21.4763 30.9079 21.8886C30.8304 23.5393 30.5669 24.663 30.1856 25.6519C29.7969 26.6865 29.187 27.6238 28.3985 28.3984C27.624 29.1869 26.6867 29.7968 25.6521 30.1855C24.6648 30.5684 23.5395 30.8288 21.8904 30.9063L20.7869 30.9527L20.4862 30.962C19.7221 30.9837 18.8371 30.9946 17.0934 30.9977L15.9372 30.9992H13.9083C12.7773 31.0032 11.6463 30.9914 10.5156 30.9636L10.2149 30.9543C9.84693 30.9404 9.47908 30.9243 9.11132 30.9063C7.4622 30.8288 6.33696 30.5684 5.34811 30.1855C4.31405 29.7966 3.3773 29.1867 2.6032 28.3984C1.81421 27.624 1.20379 26.6867 0.814591 25.6519C0.43176 24.6646 0.171373 23.5393 0.0938768 21.8886L0.0473792 20.785L0.0396298 20.4843C0.0110586 19.3541 -0.00185881 18.2235 0.000881591 17.093V13.9063C-0.00340843 12.7757 0.00795887 11.6452 0.03498 10.5149L0.0458294 10.2143C0.0582288 9.86551 0.0737279 9.52297 0.092327 9.11068C0.169823 7.45997 0.43021 6.33625 0.81304 5.34737C1.20315 4.3123 1.81464 3.37494 2.60475 2.60084C3.3784 1.81276 4.3146 1.20288 5.34811 0.81373C6.33696 0.43089 7.46065 0.170496 9.11132 0.0929977C9.5236 0.0743981 9.86768 0.0588985 10.2149 0.0464988L10.5156 0.037199C11.6457 0.00966046 12.7763 -0.00222373 13.9068 0.00154985L17.0934 0ZM15.5001 7.74981C13.4448 7.74981 11.4736 8.56631 10.0203 10.0197C8.56697 11.4731 7.75049 13.4442 7.75049 15.4996C7.75049 17.555 8.56697 19.5262 10.0203 20.9796C11.4736 22.4329 13.4448 23.2494 15.5001 23.2494C17.5554 23.2494 19.5266 22.4329 20.9799 20.9796C22.4332 19.5262 23.2497 17.555 23.2497 15.4996C23.2497 13.4442 22.4332 11.4731 20.9799 10.0197C19.5266 8.56631 17.5554 7.74981 15.5001 7.74981ZM15.5001 10.8497C16.1107 10.8496 16.7154 10.9698 17.2795 11.2034C17.8437 11.437 18.3564 11.7794 18.7882 12.2111C19.22 12.6428 19.5626 13.1554 19.7964 13.7195C20.0302 14.2836 20.1505 14.8882 20.1506 15.4988C20.1507 16.1095 20.0306 16.7142 19.797 17.2783C19.5634 17.8425 19.221 18.3552 18.7893 18.787C18.3576 19.2189 17.8451 19.5615 17.281 19.7953C16.7169 20.029 16.1123 20.1494 15.5016 20.1495C14.2685 20.1495 13.0858 19.6596 12.2138 18.7876C11.3418 17.9156 10.8519 16.7329 10.8519 15.4996C10.8519 14.2664 11.3418 13.0837 12.2138 12.2117C13.0858 11.3396 14.2685 10.8497 15.5016 10.8497M23.6387 5.42487C23.1249 5.42487 22.6321 5.62899 22.2688 5.99234C21.9055 6.35568 21.7013 6.84848 21.7013 7.36232C21.7013 7.87617 21.9055 8.36896 22.2688 8.73231C22.6321 9.09565 23.1249 9.29977 23.6387 9.29977C24.1526 9.29977 24.6454 9.09565 25.0087 8.73231C25.372 8.36896 25.5761 7.87617 25.5761 7.36232C25.5761 6.84848 25.372 6.35568 25.0087 5.99234C24.6454 5.62899 24.1526 5.42487 23.6387 5.42487Z" fill="#00A859"/>
</svg>
