<svg width="34" height="34" viewBox="0 0 34 34" fill="none" xmlns="http://www.w3.org/2000/svg">
<path d="M17 0C26.3891 0 34 7.61089 34 17C34 26.3891 26.3891 34 17 34C13.9957 34.0052 11.0442 33.2101 8.44902 31.6965L0.00682627 34L2.30522 25.5544C0.790455 22.9584 -0.00523876 20.0056 2.59567e-05 17C2.59567e-05 7.61089 7.61092 0 17 0ZM11.2064 9.00999L10.8664 9.02359C10.6466 9.03874 10.4318 9.09648 10.234 9.19359C10.0497 9.29816 9.88137 9.4287 9.73422 9.58119C9.53022 9.77329 9.41462 9.93989 9.29052 10.1014C8.66173 10.9189 8.32317 11.9226 8.32832 12.954C8.33172 13.787 8.54932 14.5979 8.88932 15.3561C9.58462 16.8895 10.7287 18.513 12.2383 20.0175C12.6021 20.3796 12.9591 20.7434 13.3433 21.0817C15.2191 22.7331 17.4544 23.924 19.8713 24.5599L20.8369 24.7078C21.1514 24.7248 21.4659 24.701 21.7821 24.6857C22.2771 24.6596 22.7604 24.5255 23.1982 24.293C23.4206 24.178 23.6379 24.0532 23.8493 23.919C23.8493 23.919 23.9213 23.8702 24.0618 23.766C24.2913 23.596 24.4324 23.4753 24.6228 23.2764C24.7656 23.1291 24.8846 22.9579 24.9798 22.763C25.1124 22.4859 25.245 21.9572 25.2994 21.5169C25.3402 21.1803 25.3283 20.9967 25.3232 20.8828C25.3164 20.7009 25.1651 20.5122 25.0002 20.4323L24.0108 19.9886C24.0108 19.9886 22.5318 19.3443 21.6274 18.9329C21.5327 18.8917 21.4313 18.8681 21.3282 18.8632C21.2119 18.851 21.0943 18.864 20.9834 18.9012C20.8726 18.9385 20.771 18.9991 20.6856 19.0791C20.6771 19.0757 20.5632 19.1726 19.3341 20.6618C19.2636 20.7566 19.1664 20.8282 19.055 20.8676C18.9436 20.9069 18.8229 20.9122 18.7085 20.8828C18.5977 20.8533 18.4892 20.8158 18.3838 20.7706C18.173 20.6822 18.0999 20.6482 17.9554 20.587C16.9794 20.1618 16.076 19.5865 15.2779 18.8819C15.0637 18.6949 14.8648 18.4909 14.6608 18.2937C13.9921 17.6531 13.4092 16.9286 12.9268 16.1381L12.8265 15.9766C12.7556 15.8674 12.6974 15.7505 12.6531 15.6281C12.5885 15.3782 12.7568 15.1776 12.7568 15.1776C12.7568 15.1776 13.1699 14.7254 13.362 14.4806C13.549 14.2426 13.7071 14.0114 13.8091 13.8465C14.0097 13.5235 14.0726 13.192 13.9672 12.9353C13.4912 11.7725 12.9993 10.6159 12.4916 9.46559C12.3913 9.23779 12.0938 9.07459 11.8235 9.04229C11.7317 9.03096 11.6399 9.02189 11.5481 9.01509C11.3199 9.002 11.091 9.00427 10.863 9.02189L11.2064 9.00999Z" fill="#00A859"/>
</svg>
